<svg height="28.57pt" preserveAspectRatio="none" viewBox="0 0 39.785 39.785" width="28.57pt" xmlns="http://www.w3.org/2000/svg"><path d="m24.392 20.392v3.0006h-.99953v3.0006h1.9991v1.9991h2.0011v.99953h-.99953v1.0016h2.9986v1.9991h-.99953v-.99953h-1.9991v.99953h.99953v2.0011h.99953v-1.0016h.99953v1.0016h1.0016v.99953h-2.0011v.99953h4.0002v-1.9991h.99953v1.9991h-.99953v.99953h.99953v.99953h4.9997v-.99953h-1.9991v-.99953h-1.9991v-1.9991h.99953v-1.0016h-.99953v-2.9986h.99953v1.9991h1.9991v.99953h.99953v-4.9997h-.99953v-.99953h.99953v-.99953h-1.9991v-1.0016h.99953v-.99953h-4.0002v2.0011h-.99953v-1.0016h-1.9991v1.0016h.99953v.99953h-.99953v.99953h-1.0016v.99953h-.99953v-1.9991h2.0011v-.99953h-1.0016v-1.0016h-.99953v-1.9991h-.99953v.99953h-.99953v.99953h-2.0011v-.99953h2.0011v-.99953h-1.0016v-.99953h1.0016v-.99953h-1.0016v-1.0016zm10.001 4.9997h.99953v2.0011h-.99953v.99953h1.9991v.99953h.99953v2.0011h-.99953v-2.0011h-1.9991v-.99953h-1.0016v.99953h-1.9991v-.99953h1.9991v-.99953h1.0016zm-8.0003 1.0016h.99953v.99953h-.99953zm4.0002 4.0002h2.9986v2.9986h-2.9986z"/><path d="m1.3927 1.3925v7.0008h7.0008v-7.0008zm.99953.99953h4.9997v4.9997h-4.9997z"/><path d="m9.393 1.3925v1.9991h.99953v-.99953h.99953v-.99953h-1.9991z"/><path d="m15.392 1.3925v.99953h.99953v.99953h2.0011v-1.9991h-3.0006z"/><path d="m19.392 1.3925v3.0006h3.0006v-2.0011h.99953v.99953h1.9991v-.99953h-.99953v-.99953h-4.9997zm.99953.99953h1.0016v.99953h-1.0016z"/><path d="m29.392 1.3925v3.0006h1.0016v-3.0006z"/><path d="m31.393 1.3925v7.0008h6.9988v-7.0008zm.99953.99953h4.9997v4.9997h-4.9997z"/><path d="m12.392 2.3921v.99953h1.0016v1.0016h.99953v-1.0016h.99953v-.99953h-3.0006z"/><path d="m3.3918 3.3916v3.0006h3.0006v-3.0006z"/><path d="m10.393 3.3916v1.0016h1.9991v-1.0016z"/><path d="m26.393 3.3916v2.0011h-1.0016v.99953h1.0016v.99953h.99953v1.0016h.99953v-2.0011h2.0011v-.99953h-1.0016v-.99953h-.99953v-1.0016h-1.9991z"/><path d="m33.392 3.3916v3.0006h3.0006v-3.0006z"/><path d="m9.3925 4.3924h1v1h-1z"/><path d="m12.393 4.3924h1v1h-1z"/><path d="m14.393 4.3932v1.9991h.99953v-1.9991z"/><path d="m16.392 4.3932v.99953h1.0016v.99953h.99953v.99953h.99953v1.0016h.99953v-1.0016h1.0016v1.0016h.99953v-2.0011h-.99953v-.99953h-2.0011v-.99953h-3.0006z"/><path d="m23.393 4.3932v.99953h1.9991v-.99953z"/><path d="m23.393 6.3922v2.0011h.99953v-2.0011z"/><path d="m9.393 7.3918v2.0011h.99953v-2.0011z"/><path d="m11.393 7.3924h1v1h-1z"/><path d="m13.393 7.3918v3.0006h-1.0016v-.99953h-1.9991v.99953h.99953v1.9991h3.0006v-1.9991h.99953v-1.9991h-.99953v-1.0016z"/><path d="m15.393 7.3924h1v1h-1z"/><path d="m17.393 7.3924h1v1h-1z"/><path d="m25.393 7.3924h1v1h-1z"/><path d="m29.392 7.3918v1.0016h-.99953v.99953h.99953v1.9991h1.0016v-4.0002z"/><path d="m18.393 8.3924h1v1h-1z"/><path d="m20.393 8.3924h1v1h-1z"/><path d="m24.392 8.3933v1.9991h-.99953v-.99953h-.99953v.99953h-3.0006v.99953h2.0011v.99953h1.9991v-.99953h.99953v.99953h.99953v-3.9981z"/><path d="m1.3925 9.3924h1v1h-1z"/><path d="m3.3918 9.3929v1.9991h-1.9991v3.0006h.99953v-2.0011h2.0011v-.99953h.99953v-1.9991h-2.0011z"/><path d="m6.3924 9.3929v.99953h3.0006v-.99953z"/><path d="m16.392 9.3929v1.9991h-.99953v2.0011h2.0011v-2.0011h.99953v-1.9991z"/><path d="m27.393 9.3924h1v1h-1z"/><path d="m31.393 9.3924h1v1h-1z"/><path d="m34.394 9.3929v1.9991h2.9986v-.99953h.99953v-.99953h-1.9991v.99953h-.99953v-.99953z"/><path d="m26.393 10.392h1v1h-1z"/><path d="m6.3924 11.392v.99953h3.0006v-.99953z"/><path d="m27.393 11.392v.99953h-2.0011v3.0006h1.0016v.99953h.99953v1.0016h.99953v-2.0011h-.99953v-.99953h.99953v.99953h2.0011v2.0011h.99953v-1.0016h.99953v-.99953h.99953v.99953h-.99953v1.0016h2.0011v-2.0011h.99953v-.99953h-.99953v-.99953h1.9991v-1.0016h-3.0006v1.0016h-2.9986v-1.0016h-2.0011v-.99953z"/><path d="m10.393 12.392h1v1h-1z"/><path d="m20.393 12.392h1v1h-1z"/><path d="m23.393 12.392h1v1h-1z"/><path d="m3.3918 13.393v1.9991h-.99953v.99953h2.0011v1.0016h.99953v-4.0002h-2.0011z"/><path d="m6.3924 13.393v1.9991h.99953v-.99953h1.0016v.99953h.99953v.99953h.99953v-2.9986h-4.0002z"/><path d="m14.393 13.392h1v1h-1z"/><path d="m17.393 13.393v1.9991h.99953v-.99953h.99953v-.99953h-1.9991z"/><path d="m36.393 13.393v1.9991h-.99953v.99953h1.9991v-.99953h.99953v-1.9991z"/><path d="m11.392 14.393v1.9991h-.99953v2.0011h-.99953v.99953h.99953v.99953h-.99953v-.99953h-2.0011v.99953h1.0016v1.0016h-2.0011v.99953h2.0011v.99953h-1.0016v.99953h1.0016v.99953h.99953v1.0016h.99953v.99953h.99953v.99953h.99953v-.99953h1.0016v.99953h1.9991v-1.9991h-3.0006v-2.0011h1.0016v.99953h.99953v-.99953h1.9991v-1.9991h-.99953v.99953h-.99953v-.99953h-2.0011v.99953h-1.9991v-.99953h-.99953v-.99953h.99953v.99953h1.9991v-.99953h-.99953v-2.0011h.99953v-.99953h-.99953v-.99953h.99953v-2.0011h1.0016v-.99953z"/><path d="m20.392 14.393v.99953h-1.9991v.99953h-.99953v3.0006h-1.0016v.99953h2.0011v-1.9991h1.9991v-.99953h1.0016v-3.0006z"/><path d="m22.393 14.392h1v1h-1z"/><path d="m7.3925 15.392h1v1h-1z"/><path d="m13.393 15.392v2.0011h-1.0016v.99953h2.0011v-3.0006z"/><path d="m23.393 15.392v.99953h-.99953v2.0011h-.99953v.99953h1.9991v-.99953h.99953v.99953h2.0011v.99953h.99953v-2.9986h-3.0006v-2.0011z"/><path d="m6.3925 16.392h1v1h-1z"/><path d="m8.3925 16.392h1v1h-1z"/><path d="m37.393 16.392h1v1h-1z"/><path d="m2.3925 17.392h1v1h-1z"/><path d="m5.3929 17.393v1.9991h.99953v-1.9991z"/><path d="m7.3925 17.392h1v1h-1z"/><path d="m15.392 17.393v1.9991h.99953v-1.9991z"/><path d="m29.393 17.392h1v1h-1z"/><path d="m34.394 17.393v.99953h.99953v.99953h.99953v2.0011h.99953v-1.0016h.99953v-1.9991h-1.9991v-.99953h-1.9991z"/><path d="m3.3918 18.393v.99953h-1.9991v.99953h.99953v2.0011h-.99953v.99953h1.9991v1.9991h1.0016v-1.9991h.99953v-1.9991h-.99953v.99953h-1.0016v-.99953h1.0016v-3.0006z"/><path d="m28.392 18.393v3.0006h2.0011v.99953h.99953v-2.0011h-.99953v-.99953h-1.0016v-.99953z"/><path d="m30.393 18.393v.99953h1.9991v-.99953z"/><path d="m12.392 19.392v2.0011h1.0016v-2.0011z"/><path d="m14.393 19.392v2.0011h.99953v-2.0011z"/><path d="m19.392 19.392v.99953h-.99953v1.0016h-.99953v1.9991h.99953v-.99953h.99953v.99953h2.0011v.99953h.99953v-.99953h.99953v-1.9991h-1.9991v.99953h-1.0016v-.99953h1.0016v-1.0016h-1.0016v-.99953z"/><path d="m23.393 19.392h1v1h-1z"/><path d="m32.392 19.392v3.0006h2.0011v.99953h.99953v-4.0002h-3.0006zm.99953.99953h1.0016v1.0016h-1.0016z"/><path d="m5.3925 20.392h1v1h-1z"/><path d="m27.393 21.392h1v1h-1z"/><path d="m37.393 21.392h1v1h-1z"/><path d="m26.393 22.392h1v1h-1z"/><path d="m29.392 22.393v2.9986h1.0016v-.99953h.99953v-.99953h-.99953v-.99953z"/><path d="m36.393 22.392h1v1h-1z"/><path d="m18.393 23.392h1v1h-1z"/><path d="m32.393 23.392h1v1h-1z"/><path d="m16.393 24.392h1v1h-1z"/><path d="m19.392 24.392v4.0002h.99953v.99953h-.99953v1.0016h2.0011v-1.0016h.99953v1.0016h-.99953v1.9991h1.9991v-.99953h3.0006v-.99953h-1.0016v-2.0011h-.99953v-.99953h-.99953v.99953h-1.9991v-.99953h1.9991v-.99953h-3.0006v-1.0016h1.0016v-.99953h-2.0011z"/><path d="m1.3925 25.392h1v1h-1z"/><path d="m5.3925 25.392h1v1h-1z"/><path d="m7.3925 25.392h1v1h-1z"/><path d="m2.3922 26.393v1.9991h.99953v-.99953h1.0016v-.99953h-2.0011z"/><path d="m6.3925 26.392h1v1h-1z"/><path d="m8.3925 26.392h1v1h-1z"/><path d="m17.393 26.393v.99953h-1.0016v.99953h1.0016v.99953h.99953v-2.9986z"/><path d="m4.3933 27.393v.99953h1.9991v-.99953h-.99953z"/><path d="m7.3925 27.392h1v1h-1z"/><path d="m1.3925 28.392h1v1h-1z"/><path d="m9.3925 28.392h1v1h-1z"/><path d="m4.3925 29.392h1v1h-1z"/><path d="m6.3924 29.392v1.0016h2.0011v-1.0016z"/><path d="m10.393 29.392v1.0016h.99953v1.9991h-.99953v-1.9991h-.99953v2.9986h1.9991v1.0016h.99953v.99953h2.0011v1.9991h.99953v-2.9986h.99953v.99953h1.0016v-2.0011h-1.0016v-.99953h3.0006v-1.9991h-.99953v.99953h-.99953v-2.0011h-2.0011v1.0016h.99953v.99953h-.99953v-.99953h-3.0006v-1.0016h-1.9991zm1.9991 2.0011h1.0016v.99953h.99953v.99953h-2.0011v-1.9991z"/><path d="m1.3927 31.393v6.9988h7.0008v-6.9988zm.99953.99953h4.9997v4.9997h-4.9997z"/><path d="m31.393 31.392h1v1h-1z"/><path d="m20.393 32.392h1v1h-1z"/><path d="m25.392 32.392v2.0011h1.0016v-2.0011z"/><path d="m3.3918 33.392v3.0006h3.0006v-3.0006z"/><path d="m19.392 33.392v1.0016h-.99953v.99953h-.99953v1.9991h.99953v-.99953h.99953v.99953h.99953v-1.9991h2.0011v-.99953h-2.0011v-1.0016z"/><path d="m22.393 33.392h1v1h-1z"/><path d="m36.393 33.392h1v1h-1z"/><path d="m9.393 34.393v1.9991h.99953v-1.9991z"/><path d="m26.393 34.393v.99953h-4.0002v.99953h1.9991v.99953h.99953v.99953h3.0006v-.99953h-.99953v-2.9986z"/><path d="m37.393 34.392h1v1h-1z"/><path d="m11.393 35.392h1v1h-1z"/><path d="m10.393 36.392h1v1h-1z"/><path d="m21.393 36.392h1v1h-1z"/><path d="m9.3925 37.392h1v1h-1z"/><path d="m16.393 37.392h1v1h-1z"/><path d="m18.393 37.392h1v1h-1z"/><path d="m20.393 37.392h1v1h-1z"/></svg>