<?xml version="1.0" encoding="UTF-8"?>
<svg width="448pt" height="143pt" version="1.1" viewBox="0 0 448 143" xmlns="http://www.w3.org/2000/svg" xmlns:xlink="http://www.w3.org/1999/xlink"><defs><marker id="ae" overflow="visible" markerHeight="3.2363636" markerWidth="4.4499998" orient="auto-start-reverse" preserveAspectRatio="xMidYMid" viewBox="0 0 7.7 5.6"><path transform="scale(.7)" d="m-2-4 11 4-11 4c2-2.33 2-5.66 0-8z" fill="context-stroke" fill-rule="evenodd"/></marker><g id="al"><path d="m0.89062-5.5156c0.45312-0.0625 0.89062-0.03125 1.2969-0.25v5.1719h-1.2344v0.57812h3.2812v-0.57812h-1.25v-6.1719h-0.10938c-0.15625 0-0.35938 0.23438-0.51562 0.32812-0.39062 0.23438-0.85938 0.32812-1.2969 0.32812h-0.0625c-0.078125 0-0.10938 0.03125-0.10938 0.125z"/></g><g id="s"><path d="m2.3594-6.7656c-1.9375 0.1875-1.9531 2.5938-1.9531 3.5625 0 1.4062 0.29688 3.4219 2.0625 3.4219 0.73438 0 1.3594-0.42188 1.6875-1.0938 0.3125-0.625 0.375-1.3125 0.40625-2v-0.48438c0-1.4375-0.34375-3.4062-2.0625-3.4062h-0.14062zm-1.1719 3.9375c-0.015625-0.078125-0.015625-0.15625-0.015625-0.25v-0.45312c0-1.1719 0.17188-2.625 1.3281-2.625 1.25 0 1.2812 1.8281 1.2812 2.8125v0.32812c0 0.9375-0.078125 2.6094-1.2812 2.6094-0.96875 0-1.2188-1.1875-1.2969-2.0156 0-0.125 0-0.26562-0.015625-0.40625z"/></g><g id="d"><path d="m0.96875-0.84375v0.82812h0.25l-0.26562 1.25h0.4375l0.40625-1.2344v-0.84375zm0-3.5938v0.84375h0.82812v-0.84375z"/></g><g id="ad"><path d="m0.90625-7.2031c-0.15625 0.03125-0.28125 0.17188-0.29688 0.32812v6.4219c0 0.375 0.23438 0.45312 0.48438 0.45312 0.09375 0 0.17188-0.015625 0.25-0.015625h0.14062c0.23438 0 0.4375-0.078125 0.45312-0.32812v-6.4375c0-0.35938-0.25-0.4375-0.48438-0.4375-0.09375 0-0.17188 0.015625-0.25 0.015625h-0.29687z"/></g><g id="ab"><path d="m2.5156-4.75c-1.0625 0.14062-2.2031 0.45312-2.2031 2.5156 0 0.60938 0.125 1.25 0.5625 1.7031 0.45312 0.48438 1.1719 0.625 1.8438 0.625 1.1562 0 2.4375-0.39062 2.4375-2.3125 0-0.67188-0.10938-1.375-0.57812-1.875-0.48438-0.54688-1.25-0.65625-1.9219-0.65625zm-0.84375 2.75v-0.48438c0-0.67188 0-1.5469 1.0781-1.5469 0.65625 0 0.96875 0.42188 1.0312 1.0156 0.03125 0.21875 0.03125 0.4375 0.03125 0.65625v0.078125c0 0.67188-0.03125 1.6094-1.0781 1.6094-0.3125 0-0.625-0.10938-0.82812-0.35938-0.21875-0.26562-0.20312-0.64062-0.23438-0.96875z"/></g><g id="u"><path d="m1.8906-3.875v-0.32812c0-0.34375-0.21875-0.4375-0.48438-0.4375h-0.39062c-0.28125 0-0.40625 0.17188-0.40625 0.45312v3.6719c0 0.28125 0.0625 0.5 0.48438 0.5h0.42188c0.25 0 0.42188-0.125 0.42188-0.46875v-1.6719c0-0.92188 0.54688-1.4375 1.3906-1.5156h0.0625c0.125 0 0.15625-0.078125 0.15625-0.1875v-0.64062c0-0.14062-0.0625-0.1875-0.15625-0.1875-0.54688 0-1.2656 0.35938-1.5 0.8125z"/></g><g id="aa"><path d="m0.90625-4.5625c-0.20312 0.03125-0.3125 0.21875-0.3125 0.42188 0 0.078125 0.015625 0.14062 0.015625 0.21875v3.4219c0 0.375 0.17188 0.5 0.48438 0.5 0.09375 0 0.17188-0.015625 0.25-0.015625h0.14062c0.23438 0 0.45312-0.078125 0.45312-0.4375v-3.6406c0-0.375-0.1875-0.48438-0.48438-0.48438h-0.40625c-0.046875 0-0.09375 0-0.14062 0.015625zm-0.046875-2.6406c-0.1875 0.03125-0.29688 0.17188-0.29688 0.35938v0.60938c0 0.39062 0.25 0.4375 0.5 0.4375h0.46875c0.25 0 0.4375-0.10938 0.4375-0.39062v-0.59375c0-0.39062-0.25-0.4375-0.5-0.4375h-0.46875c-0.046875 0-0.09375 0-0.14062 0.015625z"/></g><g id="t"><path d="m0.90625-4.5781h-0.23438c-0.28125 0-0.46875 0.125-0.46875 0.35938s0.17188 0.375 0.45312 0.375c0.078125 0 0.15625-0.015625 0.21875-0.015625v2.3594c0 0.6875 0.078125 1.5938 1.0625 1.5938 0.57812 0 1.0938-0.15625 1.625-0.40625 0.0625-0.03125 0.14062-0.078125 0.15625-0.15625 0-0.0625-0.046875-0.15625-0.046875-0.23438l-0.0625-0.20312c-0.015625-0.046875-0.0625-0.14062-0.125-0.14062-0.078125 0-0.1875 0.10938-0.28125 0.17188-0.1875 0.125-0.42188 0.20312-0.625 0.20312-0.35938 0-0.42188-0.46875-0.42188-0.84375 0-0.125 0.015625-0.23438 0.015625-0.3125v-2.0312h0.9375c0.28125 0 0.42188-0.14062 0.42188-0.35938s-0.15625-0.35938-0.40625-0.35938h-0.95312v-0.89062c0-0.23438-0.125-0.40625-0.42188-0.40625h-0.35938c-0.23438 0-0.48438 0.046875-0.48438 0.42188z"/></g><g id="z"><path d="m1.9219-4.0312v-2.7344c0-0.42188-0.26562-0.4375-0.5-0.4375h-0.39062c-0.25 0-0.4375 0.10938-0.4375 0.45312v6.2812c0 0.28125 0.125 0.45312 0.4375 0.45312h0.4375c0.3125 0 0.48438-0.10938 0.48438-0.46875v-1.7344c0-0.10938-0.015625-0.23438-0.015625-0.35938 0-0.65625 0.35938-1.3906 1.1094-1.3906 0.5625 0 0.57812 0.40625 0.57812 0.76562v2.75c0 0.25 0.10938 0.4375 0.375 0.4375h0.51562c0.3125 0 0.46875-0.125 0.46875-0.4375v-2.625c0-0.34375 0-0.70312-0.15625-1.0312-0.25-0.46875-0.79688-0.57812-1.2656-0.57812-0.625 0-1.0938 0.15625-1.6406 0.65625z"/></g><g id="w"><path d="m0.85938-4.5781h-0.125c-0.25 0-0.4375 0.125-0.4375 0.35938 0 0.21875 0.15625 0.35938 0.40625 0.35938h0.15625v3.1875c0 0.0625-0.015625 0.14062-0.015625 0.21875 0 0.39062 0.26562 0.4375 0.51562 0.4375h0.35938c0.39062 0 0.46875-0.21875 0.46875-0.48438v-3.3594h0.54688c0.23438 0 0.40625-0.15625 0.40625-0.35938s-0.14062-0.35938-0.40625-0.35938h-0.57812v-1.2188c0-0.35938 0.03125-0.79688 0.67188-0.79688 0.34375 0 0.5 0.14062 0.75 0.32812 0.03125 0.03125 0.0625 0.046875 0.09375 0.046875 0.125 0 0.125-0.10938 0.125-0.1875v-0.35938c0-0.078125 0.015625-0.15625 0.015625-0.21875 0-0.29688-0.48438-0.32812-0.79688-0.32812h-0.1875c-0.54688 0-1.1562 0.078125-1.5469 0.51562-0.28125 0.3125-0.39062 0.71875-0.42188 1.125z"/></g><g id="ak"><path d="m3.6562-4.3281c-0.42188-0.23438-0.78125-0.35938-1.2969-0.35938-0.5 0-1.0469 0.17188-1.4062 0.51562-0.5 0.5-0.57812 1.2656-0.57812 1.9219 0 0.64062 0.10938 1.3281 0.54688 1.7969 0.34375 0.39062 0.90625 0.54688 1.4219 0.54688 0.48438 0 0.84375-0.14062 1.2812-0.42188 0.046875 0.29688 0.28125 0.3125 0.48438 0.3125h0.40625c0.21875 0 0.46875-0.046875 0.46875-0.4375 0-0.078125-0.015625-0.15625-0.015625-0.21875v-5.875c0-0.0625 0.015625-0.125 0.015625-0.21875 0-0.40625-0.26562-0.4375-0.51562-0.4375h-0.375c-0.25 0-0.4375 0.09375-0.4375 0.42188zm-1.9375 2.4219v-0.45312c0-0.6875 0.0625-1.6094 1.0938-1.6094 0.26562 0 0.75 0.125 0.8125 0.35938v2.4062c0 0.34375-0.54688 0.57812-0.92188 0.57812-0.26562 0-0.54688-0.09375-0.70312-0.29688-0.23438-0.28125-0.23438-0.65625-0.28125-0.98438z"/></g><g id="j"><path d="m1.5781-2.1406h2.7188c0.28125 0 0.48438-0.09375 0.48438-0.4375 0-0.57812-0.10938-1.25-0.57812-1.6719-0.39062-0.35938-0.9375-0.5-1.4688-0.5-0.65625 0-1.3125 0.125-1.8125 0.60938-0.5 0.46875-0.60938 1.1875-0.625 1.8281 0 0.64062 0.15625 1.2656 0.59375 1.7344 0.5 0.53125 1.2656 0.67188 1.9688 0.67188 0.48438 0 0.96875-0.10938 1.4062-0.29688l0.29688-0.14062c0.078125-0.046875 0.15625-0.09375 0.15625-0.1875 0-0.015625-0.015625-0.046875-0.015625-0.078125l-0.03125-0.5c-0.03125-0.0625-0.03125-0.17188-0.125-0.17188-0.046875 0-0.09375 0.03125-0.14062 0.0625-0.4375 0.35938-0.95312 0.60938-1.5469 0.60938-0.34375 0-0.70312-0.09375-0.9375-0.375-0.26562-0.29688-0.34375-0.76562-0.34375-1.1562zm0.015625-0.64062c0.015625-0.64062 0.375-1.25 1.0938-1.25 0.79688 0 0.98438 0.67188 0.98438 1.25z"/></g><g id="v"><path d="m1.8906-4v-0.17188c0-0.32812-0.15625-0.46875-0.46875-0.46875h-0.40625c-0.28125 0-0.42188 0.1875-0.42188 0.45312v3.7344c0 0.42188 0.28125 0.4375 0.51562 0.4375h0.42188c0.40625 0 0.42188-0.28125 0.42188-0.5v-2.0781c0-0.70312 0.375-1.375 1.1094-1.375h0.09375c0.46875 0.078125 0.46875 0.40625 0.46875 0.73438v2.7812c0 0.25 0.09375 0.4375 0.375 0.4375h0.51562c0.3125 0 0.46875-0.125 0.46875-0.4375v-2.625c0-0.34375 0-0.71875-0.17188-1.0312-0.25-0.46875-0.78125-0.57812-1.25-0.57812-0.625 0-1.1562 0.1875-1.6719 0.6875z"/></g><g id="ac"><path d="m1.9062-4.75c-0.71875 0.078125-1.5312 0.3125-1.5312 1.4062 0 0.75 0.57812 1.2656 1.2656 1.4375 0.45312 0.125 1.25 0.10938 1.3125 0.64062v0.046875c0 0.48438-0.4375 0.54688-0.76562 0.54688-0.60938 0-1.0312-0.25-1.5-0.71875-0.03125-0.03125-0.0625-0.0625-0.10938-0.0625-0.17188 0-0.26562 0.76562-0.26562 0.9375 0 0.20312 0.4375 0.34375 0.67188 0.42188 0.39062 0.14062 0.79688 0.1875 1.2031 0.1875 0.79688 0 1.7656-0.21875 1.7656-1.4844 0-0.76562-0.5625-1.3125-1.2188-1.5-0.42188-0.125-1.375-0.0625-1.375-0.70312 0.0625-0.32812 0.28125-0.42188 0.54688-0.4375h0.15625c0.51562 0 0.875 0.14062 1.3281 0.5 0.03125 0.03125 0.078125 0.0625 0.125 0.0625 0.17188 0 0.25-0.67188 0.25-0.8125 0-0.29688-1.0469-0.46875-1.5781-0.46875z"/></g><g id="aj"><path d="m3.6562-0.45312c0 0.39062 0.23438 0.45312 0.5 0.45312 0.09375 0 0.1875-0.015625 0.26562-0.015625h0.10938c0.21875 0 0.45312-0.03125 0.45312-0.42188v-3.7031c0-0.39062-0.25-0.4375-0.46875-0.4375h-0.45312c-0.35938 0-0.4375 0.23438-0.4375 0.48438v1.9375c0 0.10938 0.015625 0.25 0.015625 0.35938 0 0.625-0.3125 1.2812-1.0781 1.2812h-0.10938c-0.32812-0.015625-0.5-0.09375-0.5-0.6875v-2.9219c0-0.26562-0.09375-0.45312-0.39062-0.45312h-0.5c-0.32812 0-0.46875 0.15625-0.46875 0.45312v2.7656c0 0.29688 0.015625 0.59375 0.15625 0.85938 0.25 0.51562 0.9375 0.60938 1.4531 0.60938 0.53125 0 1.0625-0.15625 1.4531-0.5625z"/></g><g id="n"><path d="m4.7188-4.0469c-0.39062 0.09375-0.39062 0.46875-0.39062 0.48438 0 0.125 0.09375 0.3125 0.34375 0.3125 0.1875 0 0.48438-0.14062 0.48438-0.53125 0-0.5-0.57812-0.625-0.85938-0.625-0.54688 0-0.875 0.48438-0.98438 0.67188-0.21875-0.59375-0.70312-0.67188-0.95312-0.67188-1 0-1.5312 1.3125-1.5312 1.5312 0 0.10938 0.09375 0.10938 0.15625 0.10938 0.125 0 0.125-0.015625 0.17188-0.17188 0.26562-0.85938 0.78125-1.25 1.1875-1.25 0.28125 0 0.48438 0.23438 0.48438 0.625 0 0.25-0.125 0.73438-0.21875 1.0938-0.10938 0.42188-0.10938 0.45312-0.23438 0.90625-0.15625 0.65625-0.35938 1.4531-0.95312 1.4531-0.03125 0-0.28125 0-0.4375-0.14062 0.29688-0.078125 0.375-0.32812 0.375-0.48438 0-0.25-0.20312-0.3125-0.32812-0.3125-0.25 0-0.5 0.20312-0.5 0.53125 0 0.39062 0.42188 0.625 0.875 0.625 0.48438 0 0.8125-0.375 0.96875-0.67188 0.20312 0.5625 0.70312 0.67188 0.95312 0.67188 1.0312 0 1.5312-1.3281 1.5312-1.5312 0-0.10938-0.078125-0.10938-0.14062-0.10938-0.125 0-0.14062 0.015625-0.1875 0.17188-0.26562 0.85938-0.76562 1.25-1.1875 1.25-0.1875 0-0.46875-0.125-0.46875-0.64062 0-0.23438 0.10938-0.67188 0.20312-1 0.10938-0.42188 0.25-1.0469 0.32812-1.375 0.14062-0.51562 0.40625-1.0625 0.875-1.0625 0.03125 0 0.28125 0 0.4375 0.14062z"/></g><g id="b"><path d="m2.4688-1.9688c0.4375 0.10938 0.875 0.20312 0.875 0.75 0 0.3125-0.26562 1.1094-1.2969 1.1094-0.21875 0-0.79688-0.046875-0.95312-0.5625 0.51562-0.046875 0.51562-0.46875 0.51562-0.48438 0-0.1875-0.14062-0.3125-0.34375-0.3125-0.23438 0-0.51562 0.15625-0.51562 0.60938 0 0.60938 0.57812 0.96875 1.2969 0.96875 1.4844 0 1.875-1.2188 1.875-1.6719 0-0.875-0.78125-1.0469-1.1875-1.1406-0.28125-0.0625-0.64062-0.14062-0.64062-0.5625 0-0.25 0.20312-0.92188 1-0.92188 0.28125 0 0.64062 0.09375 0.75 0.48438-0.3125 0.046875-0.39062 0.3125-0.39062 0.40625 0 0.10938 0.0625 0.28125 0.29688 0.28125 0.17188 0 0.42188-0.10938 0.42188-0.54688 0-0.45312-0.40625-0.84375-1.0625-0.84375-1.1719 0-1.5781 0.95312-1.5781 1.4688 0 0.78125 0.65625 0.90625 0.9375 0.96875z"/></g><g id="i"><path d="m5.1094-3.8906c0.03125-0.0625 0.03125-0.10938 0.03125-0.14062 0-0.10938-0.078125-0.26562-0.28125-0.26562-0.29688 0-0.35938 0.29688-0.39062 0.375l-0.71875 2.9062c-0.046875 0.17188-0.046875 0.20312-0.14062 0.32812-0.1875 0.28125-0.48438 0.57812-0.92188 0.57812s-0.53125-0.4375-0.53125-0.76562c0-0.60938 0.32812-1.5 0.57812-2.1875 0.078125-0.20312 0.125-0.34375 0.125-0.53125 0-0.5-0.32812-0.8125-0.75-0.8125-0.9375 0-1.2812 1.4688-1.2812 1.5312 0 0.10938 0.09375 0.10938 0.15625 0.10938 0.125 0 0.125-0.03125 0.17188-0.17188 0.078125-0.29688 0.34375-1.25 0.92188-1.25 0.10938 0 0.21875 0.03125 0.21875 0.29688 0 0.23438-0.09375 0.5-0.23438 0.89062-0.26562 0.70312-0.51562 1.4375-0.51562 1.9531 0 0.875 0.57812 1.1562 1.1094 1.1562s0.875-0.29688 1.1094-0.59375c0.1875 0.53125 0.60938 0.59375 0.79688 0.59375 0.375 0 0.57812-0.25 0.73438-0.5625 0.17188-0.375 0.29688-0.95312 0.29688-0.96875 0-0.10938-0.078125-0.10938-0.15625-0.10938-0.10938 0-0.125 0.015625-0.1875 0.23438-0.14062 0.5625-0.32812 1.1875-0.67188 1.1875-0.25 0-0.25-0.26562-0.25-0.40625 0-0.078125 0-0.23438 0.0625-0.51562z"/></g><g id="h"><path d="m2.2969-1.75c0.046875-0.21875 0.10938-0.42188 0.15625-0.64062 0.125-0.48438 0.125-0.51562 0.25-0.71875 0.28125-0.5 0.71875-1.0781 1.4062-1.0781 0.45312 0 0.45312 0.51562 0.45312 0.65625 0 0.26562-0.0625 0.5625-0.09375 0.65625l-0.64062 2.5781c-0.015625 0.0625-0.03125 0.125-0.03125 0.14062 0 0.10938 0.078125 0.26562 0.28125 0.26562 0.125 0 0.28125-0.0625 0.35938-0.26562l0.39062-1.5938c0.0625-0.21875 0.10938-0.42188 0.17188-0.64062 0.125-0.48438 0.125-0.51562 0.25-0.71875 0.28125-0.5 0.71875-1.0781 1.4062-1.0781 0.45312 0 0.45312 0.51562 0.45312 0.65625 0 0.625-0.4375 1.8125-0.57812 2.2031-0.125 0.34375-0.15625 0.4375-0.15625 0.64062 0 0.4375 0.28125 0.79688 0.75 0.79688 0.9375 0 1.2656-1.4844 1.2656-1.5312 0-0.10938-0.078125-0.10938-0.14062-0.10938-0.14062 0-0.14062 0.03125-0.17188 0.17188-0.078125 0.26562-0.35938 1.25-0.9375 1.25-0.20312 0-0.21875-0.15625-0.21875-0.29688 0-0.23438 0.10938-0.5 0.1875-0.73438 0.20312-0.53125 0.60938-1.6562 0.60938-2.2344 0-0.82812-0.57812-1.0312-1.0469-1.0312-0.70312 0-1.2031 0.4375-1.5 0.875-0.078125-0.6875-0.59375-0.875-1.0469-0.875-0.59375 0-1.0781 0.32812-1.4219 0.78125-0.078125-0.48438-0.40625-0.78125-0.84375-0.78125-0.35938 0-0.54688 0.23438-0.71875 0.53125-0.1875 0.39062-0.3125 0.98438-0.3125 1 0 0.10938 0.09375 0.10938 0.15625 0.10938 0.125 0 0.125-0.015625 0.1875-0.23438 0.17188-0.70312 0.35938-1.1875 0.67188-1.1875 0.26562 0 0.26562 0.29688 0.26562 0.40625 0 0.15625-0.03125 0.34375-0.078125 0.5l-0.75 2.9844c-0.015625 0.0625-0.03125 0.125-0.03125 0.14062 0 0.10938 0.078125 0.26562 0.28125 0.26562 0.125 0 0.29688-0.0625 0.35938-0.26562z"/></g><g id="a"><path d="m4.3438-3.7656c-0.5 0.0625-0.5 0.46875-0.5 0.5 0 0.15625 0.10938 0.3125 0.32812 0.3125 0.28125 0 0.51562-0.21875 0.51562-0.59375 0-0.48438-0.4375-0.85938-1.0625-0.85938-1.25 0-2.5312 1.4219-2.5312 2.875 0 0.98438 0.59375 1.6406 1.4688 1.6406 1.2812 0 2.1094-1 2.1094-1.1406 0-0.0625-0.09375-0.17188-0.17188-0.17188-0.03125 0-0.046875 0.015625-0.125 0.10938-0.73438 0.9375-1.625 0.98438-1.7969 0.98438-0.53125 0-0.78125-0.45312-0.78125-1.0312 0-0.53125 0.26562-1.5781 0.53125-2.0469 0.35938-0.65625 0.85938-1 1.2969-1 0.10938 0 0.5625 0.015625 0.71875 0.42188z"/></g><g id="l"><path d="m3.2969-1.4219c0-0.10938-0.078125-0.10938-0.14062-0.10938-0.14062 0-0.14062 0.03125-0.17188 0.17188-0.078125 0.29688-0.35938 1.25-0.9375 1.25-0.078125 0-0.21875-0.015625-0.21875-0.28125 0-0.25 0.14062-0.59375 0.26562-0.95312l0.64062-1.7031c0.09375-0.29688 0.10938-0.375 0.10938-0.5625 0-0.54688-0.375-0.79688-0.73438-0.79688-0.9375 0-1.2812 1.4844-1.2812 1.5312 0 0.10938 0.09375 0.10938 0.15625 0.10938 0.125 0 0.125-0.03125 0.17188-0.17188 0.09375-0.32812 0.34375-1.25 0.92188-1.25 0.10938 0 0.21875 0.046875 0.21875 0.28125s-0.10938 0.53125-0.17188 0.71875l-0.29688 0.82812c-0.14062 0.32812-0.25 0.65625-0.375 0.98438-0.14062 0.375-0.17188 0.48438-0.17188 0.6875 0 0.39062 0.23438 0.79688 0.75 0.79688 0.9375 0 1.2656-1.5 1.2656-1.5312zm-0.046875-4.7812c0-0.25-0.20312-0.34375-0.34375-0.34375-0.20312 0-0.46875 0.20312-0.46875 0.48438 0 0.25 0.1875 0.32812 0.32812 0.32812 0.20312 0 0.48438-0.1875 0.48438-0.46875z"/></g><g id="g"><path d="m2.5938-3.9844h0.84375c0.17188 0 0.28125 0 0.28125-0.1875 0-0.125-0.09375-0.125-0.25-0.125h-0.79688l0.375-1.4688c0.03125-0.14062 0.03125-0.17188 0.03125-0.21875 0-0.20312-0.17188-0.25-0.26562-0.25-0.25 0-0.34375 0.20312-0.39062 0.35938l-0.39062 1.5781h-0.84375c-0.17188 0-0.28125 0-0.28125 0.1875 0 0.125 0.09375 0.125 0.25 0.125h0.79688l-0.71875 2.8594c-0.015625 0.03125-0.046875 0.20312-0.046875 0.34375 0 0.48438 0.32812 0.89062 0.84375 0.89062 1.0156 0 1.5156-1.4844 1.5156-1.5312 0-0.10938-0.078125-0.10938-0.14062-0.10938-0.125 0-0.125 0.015625-0.20312 0.20312-0.1875 0.46875-0.57812 1.2188-1.1562 1.2188-0.26562 0-0.26562-0.25-0.26562-0.40625 0-0.078125 0-0.23438 0.078125-0.51562z"/></g><g id="c"><path d="m9.0469-2.2969c0.1875 0 0.35938 0 0.35938-0.20312 0-0.1875-0.17188-0.1875-0.35938-0.1875h-7.4062c0.54688-0.42188 0.82812-0.82812 0.90625-0.96875 0.4375-0.6875 0.53125-1.3125 0.53125-1.3125 0-0.125-0.125-0.125-0.20312-0.125-0.17188 0-0.1875 0.015625-0.21875 0.20312-0.23438 0.96875-0.82812 1.7969-1.9531 2.2656-0.10938 0.046875-0.14062 0.0625-0.14062 0.125 0 0.078125 0.046875 0.09375 0.14062 0.14062 1.0469 0.42188 1.7031 1.2031 1.9531 2.3125 0.03125 0.125 0.046875 0.15625 0.21875 0.15625 0.078125 0 0.20312 0 0.20312-0.125 0-0.015625-0.09375-0.64062-0.51562-1.3125-0.20312-0.29688-0.48438-0.64062-0.92188-0.96875z"/></g><g id="ai"><path d="m5.4688-2.2969c0.15625 0 0.34375 0 0.34375-0.20312 0-0.1875-0.1875-0.1875-0.34375-0.1875h-4.2344c0.125-1.3438 1.2656-2.2969 2.6719-2.2969h1.5625c0.15625 0 0.34375 0 0.34375-0.20312s-0.1875-0.20312-0.34375-0.20312h-1.5781c-1.7031 0-3.0625 1.2969-3.0625 2.8906 0 1.6094 1.3594 2.9062 3.0625 2.9062h1.5781c0.15625 0 0.34375 0 0.34375-0.20312s-0.1875-0.20312-0.34375-0.20312h-1.5625c-1.4062 0-2.5469-0.95312-2.6719-2.2969z"/></g><g id="k"><path d="m6.5625-2.2969c0.17188 0 0.35938 0 0.35938-0.20312 0-0.1875-0.1875-0.1875-0.35938-0.1875h-5.3906c-0.17188 0-0.34375 0-0.34375 0.1875 0 0.20312 0.17188 0.20312 0.34375 0.20312z"/></g><g id="f"><path d="m1.5781-7.125c0-0.17188 0-0.35938-0.1875-0.35938-0.20312 0-0.20312 0.1875-0.20312 0.35938v9.2656c0 0.17188 0 0.35938 0.20312 0.35938 0.1875 0 0.1875-0.1875 0.1875-0.35938z"/></g><g id="y"><path d="m6.7188-3.2344c0.14062-0.0625 0.20312-0.125 0.20312-0.21875s-0.046875-0.15625-0.20312-0.21875l-5.5-2.5938c-0.125-0.078125-0.17188-0.078125-0.1875-0.078125-0.125 0-0.20312 0.09375-0.20312 0.20312 0 0.125 0.078125 0.17188 0.1875 0.21875l5.2344 2.4688-5.2188 2.4531c-0.1875 0.09375-0.20312 0.17188-0.20312 0.23438 0 0.10938 0.09375 0.20312 0.20312 0.20312 0.03125 0 0.046875 0 0.17188-0.078125zm-0.15625 4.5938c0.17188 0 0.35938 0 0.35938-0.1875 0-0.20312-0.21875-0.20312-0.35938-0.20312h-5.375c-0.15625 0-0.35938 0-0.35938 0.20312 0 0.1875 0.17188 0.1875 0.34375 0.1875z"/></g><g id="x"><path d="m1.9062-0.53125c0-0.28125-0.23438-0.53125-0.51562-0.53125-0.29688 0-0.53125 0.25-0.53125 0.53125 0 0.29688 0.23438 0.53125 0.53125 0.53125 0.28125 0 0.51562-0.23438 0.51562-0.53125z"/></g><g id="ah"><path d="m0.875-0.59375c-0.03125 0.15625-0.09375 0.39062-0.09375 0.4375 0 0.17188 0.14062 0.26562 0.29688 0.26562 0.125 0 0.29688-0.078125 0.375-0.28125 0-0.015625 0.125-0.48438 0.1875-0.73438l0.21875-0.89062c0.046875-0.23438 0.10938-0.45312 0.17188-0.67188 0.03125-0.17188 0.10938-0.46875 0.125-0.5 0.14062-0.3125 0.67188-1.2188 1.625-1.2188 0.45312 0 0.53125 0.375 0.53125 0.70312 0 0.60938-0.48438 1.8906-0.64062 2.3125-0.09375 0.23438-0.10938 0.35938-0.10938 0.46875 0 0.46875 0.35938 0.8125 0.82812 0.8125 0.9375 0 1.2969-1.4531 1.2969-1.5312 0-0.10938-0.078125-0.10938-0.10938-0.10938-0.10938 0-0.10938 0.03125-0.15625 0.1875-0.20312 0.67188-0.53125 1.2344-1.0156 1.2344-0.17188 0-0.23438-0.09375-0.23438-0.32812 0-0.25 0.078125-0.48438 0.17188-0.70312 0.1875-0.53125 0.60938-1.625 0.60938-2.2031 0-0.65625-0.42188-1.0625-1.1406-1.0625-0.90625 0-1.3906 0.64062-1.5625 0.875-0.046875-0.5625-0.45312-0.875-0.92188-0.875-0.45312 0-0.64062 0.39062-0.73438 0.5625-0.17188 0.34375-0.29688 0.9375-0.29688 0.96875 0 0.10938 0.09375 0.10938 0.10938 0.10938 0.10938 0 0.10938-0.015625 0.17188-0.23438 0.17188-0.70312 0.375-1.1875 0.73438-1.1875 0.1875 0 0.29688 0.125 0.29688 0.45312 0 0.21875-0.03125 0.32812-0.15625 0.84375z"/></g><g id="e"><path d="m4.0781-2.2969h2.7812c0.14062 0 0.32812 0 0.32812-0.20312 0-0.1875-0.1875-0.1875-0.32812-0.1875h-2.7812v-2.7969c0-0.14062 0-0.32812-0.20312-0.32812s-0.20312 0.1875-0.20312 0.32812v2.7969h-2.7812c-0.14062 0-0.32812 0-0.32812 0.1875 0 0.20312 0.1875 0.20312 0.32812 0.20312h2.7812v2.7969c0 0.14062 0 0.32812 0.20312 0.32812s0.20312-0.1875 0.20312-0.32812z"/></g><g id="r"><path d="m2.5469 2.5v-0.40625h-0.96875v-9.1719h0.96875v-0.40625h-1.375v9.9844z"/></g><g id="q"><path d="m1.5781-7.4844h-1.3594v0.40625h0.96875v9.1719h-0.96875v0.40625h1.3594z"/></g><g id="p"><path d="m3.2969 2.3906c0-0.03125 0-0.046875-0.17188-0.21875-1.2344-1.25-1.5625-3.1406-1.5625-4.6719 0-1.7344 0.375-3.4688 1.6094-4.7031 0.125-0.125 0.125-0.14062 0.125-0.17188 0-0.078125-0.03125-0.10938-0.09375-0.10938-0.10938 0-1 0.6875-1.5938 1.9531-0.5 1.0938-0.625 2.2031-0.625 3.0312 0 0.78125 0.10938 1.9844 0.65625 3.125 0.60938 1.2188 1.4531 1.875 1.5625 1.875 0.0625 0 0.09375-0.03125 0.09375-0.10938z"/></g><g id="o"><path d="m2.875-2.5c0-0.76562-0.10938-1.9688-0.65625-3.1094-0.59375-1.2188-1.4531-1.875-1.5469-1.875-0.0625 0-0.10938 0.046875-0.10938 0.10938 0 0.03125 0 0.046875 0.1875 0.23438 0.98438 0.98438 1.5469 2.5625 1.5469 4.6406 0 1.7188-0.35938 3.4688-1.5938 4.7188-0.14062 0.125-0.14062 0.14062-0.14062 0.17188 0 0.0625 0.046875 0.10938 0.10938 0.10938 0.09375 0 1-0.6875 1.5781-1.9531 0.51562-1.0938 0.625-2.2031 0.625-3.0469z"/></g><linearGradient id="ag" x1="224" x2="426" y1="211.34" y2="278" gradientTransform="matrix(.87599 0 0 .91509 -270.57 -40.141)" gradientUnits="userSpaceOnUse" spreadMethod="reflect"><stop stop-color="#e8eef7" offset="0"/><stop stop-color="#b7c9e3" offset="1"/></linearGradient><clipPath id="ap"><path d="m209 211.34v81.656h232v-81.656z"/></clipPath><clipPath id="an"><path d="m209 168v43.344h232v-43.344z"/></clipPath><clipPath id="m"><path d="m209 168h232v125h-232z"/></clipPath><linearGradient id="af" x1="224" x2="426" y1="211.34" y2="278" gradientTransform="matrix(.87599 0 0 .91509 -270.57 26.515)" gradientUnits="userSpaceOnUse" spreadMethod="reflect"><stop stop-color="#e8eef7" offset="0"/><stop stop-color="#b7c9e3" offset="1"/></linearGradient><clipPath id="ao"><path d="m209 211.34v81.656h232v-81.656z"/></clipPath><clipPath id="aq"><path d="m209 168h232v125h-232z"/></clipPath><filter id="am" x="-.023842" y="-.031122" width="1.0477" height="1.0622" color-interpolation-filters="sRGB"><feGaussianBlur stdDeviation="1.7180948"/></filter></defs><rect x="269.69" y="5.2541" width="172.95" height="132.49" rx="3" ry="3" fill-opacity=".5" filter="url(#am)" opacity=".9" style="paint-order:markers stroke fill"/><use transform="translate(-87.105 -635.83)" x="99.894997" y="647.96899" fill="#006400" xlink:href="#b"/><use transform="translate(-87.105 -635.83)" x="103.9687" y="647.96899" fill="#006400" xlink:href="#i"/><use transform="translate(-87.105 -635.83)" x="109.31564" y="647.96899" fill="#006400" xlink:href="#h"/><use transform="translate(-87.105 -635.83)" x="120.994" y="647.96899" fill="#006400" xlink:href="#c"/><use transform="translate(-87.105 -635.83)" x="133.724" y="647.96899" fill="#006400" xlink:href="#s"/><use transform="translate(-87.105 -635.83)" x="138.7043" y="647.96899" fill="#006400" xlink:href="#d"/><use transform="translate(-87.105 -635.83)" x="151.431" y="647.96899" fill="#006400" xlink:href="#a"/><use transform="translate(-87.105 -635.83)" x="156.01379" y="647.96899" fill="#006400" xlink:href="#b"/><use transform="translate(-87.105 -635.83)" x="163.673" y="647.96899" fill="#006400" xlink:href="#c"/><use transform="translate(-87.105 -635.83)" x="176.403" y="647.96899" fill="#006400" xlink:href="#s"/><use transform="translate(-87.105 -635.83)" x="181.3833" y="647.96899" fill="#006400" xlink:href="#d"/><use transform="translate(-87.105 -635.83)" x="194.11" y="647.96899" fill="#006400" xlink:href="#a"/><use transform="translate(-87.105 -635.83)" x="198.18471" y="647.96899" fill="#006400" xlink:href="#a"/><use transform="translate(-87.105 -635.83)" x="202.7675" y="647.96899" fill="#006400" xlink:href="#b"/><use transform="translate(-87.105 -635.83)" x="210.425" y="647.96899" fill="#006400" xlink:href="#c"/><use transform="translate(-87.105 -635.83)" x="223.155" y="647.96899" fill="#006400" xlink:href="#s"/><use transform="translate(-87.105 -635.83)" x="228.1353" y="647.96899" fill="#006400" xlink:href="#d"/><use transform="translate(-87.105 -635.83)" x="99.894997" y="659.92401" fill="#000000" xlink:href="#w"/><use transform="translate(-87.105 -635.83)" x="103.24243" y="659.92401" fill="#000000" xlink:href="#ab"/><use transform="translate(-87.105 -635.83)" x="108.41203" y="659.92401" fill="#000000" xlink:href="#u"/><use transform="translate(-87.105 -635.83)" x="115.597" y="659.92401" fill="#000000" xlink:href="#l"/><use transform="translate(-87.105 -635.83)" x="122.434" y="659.92401" fill="#000000" xlink:href="#ai"/><use transform="translate(-87.105 -635.83)" x="131.843" y="659.92401" fill="#000000" xlink:href="#s"/><use transform="translate(-87.105 -635.83)" x="136.823" y="659.92401" fill="#000000" xlink:href="#x"/><use transform="translate(-87.105 -635.83)" x="139.59061" y="659.92401" fill="#000000" xlink:href="#x"/><use transform="translate(-87.105 -635.83)" x="142.35822" y="659.92401" fill="#000000" xlink:href="#ah"/><use transform="translate(-87.105 -635.83)" x="150.552" y="659.92401" fill="#000000" xlink:href="#k"/><use transform="translate(-87.105 -635.83)" x="160.515" y="659.92401" fill="#000000" xlink:href="#al"/><use transform="translate(-87.105 -635.83)" x="168.815" y="659.92401" fill="#000000" xlink:href="#ak"/><use transform="translate(-87.105 -635.83)" x="174.40402" y="659.92401" fill="#000000" xlink:href="#ab"/><path d="m17.969 131.62v-103.94" stroke="#000" stroke-miterlimit="10" stroke-width=".398"/><use transform="translate(-87.105 -635.83)" x="115.234" y="670.98297" fill="#0000b4" xlink:href="#g"/><use transform="translate(-87.105 -635.83)" x="122.256" y="670.98297" fill="#0000b4" xlink:href="#c"/><use transform="translate(-87.105 -635.83)" x="134.98599" y="670.98297" fill="#0000b4" xlink:href="#b"/><use transform="translate(-87.105 -635.83)" x="139.05971" y="670.98297" fill="#0000b4" xlink:href="#i"/><use transform="translate(-87.105 -635.83)" x="144.40663" y="670.98297" fill="#0000b4" xlink:href="#h"/><use transform="translate(-87.105 -635.83)" x="155.532" y="670.98297" fill="#0000b4" xlink:href="#e"/><use transform="translate(-87.105 -635.83)" x="180.92101" y="670.98297" fill="#0000b4" xlink:href="#d"/><use transform="translate(-87.105 -635.83)" x="115.234" y="682.93799" fill="#0000b4" xlink:href="#aa"/><use transform="translate(-87.105 -635.83)" x="117.77944" y="682.93799" fill="#0000b4" xlink:href="#w"/><use transform="translate(-87.105 -635.83)" x="125.208" y="682.93799" fill="#0000b4" xlink:href="#f"/><use transform="translate(-87.105 -635.83)" x="127.976" y="682.93799" fill="#0000b4" xlink:href="#b"/><use transform="translate(-87.105 -635.83)" x="132.04971" y="682.93799" fill="#0000b4" xlink:href="#i"/><use transform="translate(-87.105 -635.83)" x="137.39664" y="682.93799" fill="#0000b4" xlink:href="#h"/><use transform="translate(-87.105 -635.83)" x="146.30701" y="682.93799" fill="#0000b4" xlink:href="#f"/><use transform="translate(-87.105 -635.83)" x="151.84421" y="682.93799" fill="#0000b4" xlink:href="#y"/><use transform="translate(-87.105 -635.83)" x="162.36273" y="682.93799" fill="#0000b4" xlink:href="#f"/><use transform="translate(-87.105 -635.83)" x="180.552" y="682.93799" fill="#0000b4" xlink:href="#f"/><use transform="translate(-87.105 -635.83)" x="186.63901" y="682.93799" fill="#0000b4" xlink:href="#t"/><use transform="translate(-87.105 -635.83)" x="190.66489" y="682.93799" fill="#0000b4" xlink:href="#z"/><use transform="translate(-87.105 -635.83)" x="196.25391" y="682.93799" fill="#0000b4" xlink:href="#j"/><use transform="translate(-87.105 -635.83)" x="201.34479" y="682.93799" fill="#0000b4" xlink:href="#v"/><use transform="translate(-87.105 -635.83)" x="210.25301" y="682.93799" fill="#0000b4" xlink:href="#a"/><use transform="translate(-87.105 -635.83)" x="218.16701" y="682.93799" fill="#0000b4" xlink:href="#c"/><use transform="translate(-87.105 -635.83)" x="230.897" y="682.93799" fill="#0000b4" xlink:href="#p"/><use transform="translate(-87.105 -635.83)" x="234.771" y="682.93799" fill="#0000b4" xlink:href="#b"/><use transform="translate(-87.105 -635.83)" x="238.84471" y="682.93799" fill="#0000b4" xlink:href="#i"/><use transform="translate(-87.105 -635.83)" x="244.19164" y="682.93799" fill="#0000b4" xlink:href="#h"/><use transform="translate(-87.105 -635.83)" x="255.31599" y="682.93799" fill="#0000b4" xlink:href="#k"/><use transform="translate(-87.105 -635.83)" x="265.27899" y="682.93799" fill="#0000b4" xlink:href="#g"/><use transform="translate(-87.105 -635.83)" x="269.534" y="682.93799" fill="#0000b4" xlink:href="#o"/><use transform="translate(-87.105 -635.83)" x="275.62015" y="682.93799" fill="#0000b4" xlink:href="#e"/><use transform="translate(-87.105 -635.83)" x="301.01099" y="682.93799" fill="#0000b4" xlink:href="#d"/><use transform="translate(-87.105 -635.83)" x="115.234" y="694.89301" fill="#0000b4" xlink:href="#j"/><use transform="translate(-87.105 -635.83)" x="120.32489" y="694.89301" fill="#0000b4" xlink:href="#ad"/><use transform="translate(-87.105 -635.83)" x="122.87033" y="694.89301" fill="#0000b4" xlink:href="#ac"/><use transform="translate(-87.105 -635.83)" x="127.07056" y="694.89301" fill="#0000b4" xlink:href="#j"/><use transform="translate(-87.105 -635.83)" x="135.481" y="694.89301" fill="#0000b4" xlink:href="#a"/><use transform="translate(-87.105 -635.83)" x="143.394" y="694.89301" fill="#0000b4" xlink:href="#c"/><use transform="translate(-87.105 -635.83)" x="156.12399" y="694.89301" fill="#0000b4" xlink:href="#p"/><use transform="translate(-87.105 -635.83)" x="165.494" y="670.98297" fill="#dc785a" xlink:href="#n"/><use transform="translate(-87.105 -635.83)" x="171.31599" y="670.98297" fill="#dc785a" xlink:href="#r"/><use transform="translate(-87.105 -635.83)" x="174.08299" y="670.98297" fill="#dc785a" xlink:href="#l"/><use transform="translate(-87.105 -635.83)" x="178.153" y="670.98297" fill="#dc785a" xlink:href="#q"/><use transform="translate(-87.105 -635.83)" x="165.125" y="682.93799" fill="#dc785a" xlink:href="#n"/><use transform="translate(-87.105 -635.83)" x="170.94701" y="682.93799" fill="#dc785a" xlink:href="#r"/><use transform="translate(-87.105 -635.83)" x="173.714" y="682.93799" fill="#dc785a" xlink:href="#l"/><use transform="translate(-87.105 -635.83)" x="177.784" y="682.93799" fill="#dc785a" xlink:href="#q"/><use transform="translate(-87.105 -635.83)" x="285.58499" y="682.93799" fill="#dc785a" xlink:href="#n"/><use transform="translate(-87.105 -635.83)" x="291.40601" y="682.93799" fill="#dc785a" xlink:href="#r"/><use transform="translate(-87.105 -635.83)" x="294.173" y="682.93799" fill="#dc785a" xlink:href="#l"/><use transform="translate(-87.105 -635.83)" x="298.24399" y="682.93799" fill="#dc785a" xlink:href="#q"/><use transform="translate(-87.105 -635.83)" x="159.99899" y="694.89301" fill="#dc785a" xlink:href="#n"/><use transform="translate(-87.105 -635.83)" x="165.82001" y="694.89301" fill="#dc785a" xlink:href="#r"/><use transform="translate(-87.105 -635.83)" x="168.58701" y="694.89301" fill="#dc785a" xlink:href="#l"/><use transform="translate(-87.105 -635.83)" x="172.658" y="694.89301" fill="#dc785a" xlink:href="#q"/><use transform="translate(-87.105 -635.83)" x="177.63901" y="694.89301" fill="#0000b4" xlink:href="#k"/><use transform="translate(-87.105 -635.83)" x="187.601" y="694.89301" fill="#0000b4" xlink:href="#g"/><use transform="translate(-87.105 -635.83)" x="191.856" y="694.89301" fill="#0000b4" xlink:href="#o"/><use transform="translate(-87.105 -635.83)" x="197.94215" y="694.89301" fill="#0000b4" xlink:href="#e"/><use transform="translate(-87.105 -635.83)" x="207.907" y="694.89301" fill="#0000b4" xlink:href="#b"/><use transform="translate(-87.105 -635.83)" x="211.98071" y="694.89301" fill="#0000b4" xlink:href="#i"/><use transform="translate(-87.105 -635.83)" x="217.32764" y="694.89301" fill="#0000b4" xlink:href="#h"/><use transform="translate(-87.105 -635.83)" x="226.239" y="694.89301" fill="#0000b4" xlink:href="#d"/><use transform="translate(-87.105 -635.83)" x="115.234" y="706.84802" fill="#0000b4" xlink:href="#b"/><use transform="translate(-87.105 -635.83)" x="119.30771" y="706.84802" fill="#0000b4" xlink:href="#i"/><use transform="translate(-87.105 -635.83)" x="124.65463" y="706.84802" fill="#0000b4" xlink:href="#h"/><use transform="translate(-87.105 -635.83)" x="136.33299" y="706.84802" fill="#0000b4" xlink:href="#c"/><use transform="translate(-87.105 -635.83)" x="149.063" y="706.84802" fill="#0000b4" xlink:href="#g"/><use transform="translate(-87.105 -635.83)" x="153.31799" y="706.84802" fill="#0000b4" xlink:href="#d"/><use transform="translate(-87.105 -635.83)" x="115.234" y="718.80298" fill="#0000b4" xlink:href="#g"/><use transform="translate(-87.105 -635.83)" x="122.256" y="718.80298" fill="#0000b4" xlink:href="#c"/><use transform="translate(-87.105 -635.83)" x="134.98599" y="718.80298" fill="#0000b4" xlink:href="#a"/><use transform="translate(-87.105 -635.83)" x="139.5688" y="718.80298" fill="#0000b4" xlink:href="#b"/><use transform="translate(-87.105 -635.83)" x="146.674" y="718.80298" fill="#0000b4" xlink:href="#e"/><use transform="translate(-87.105 -635.83)" x="156.63699" y="718.80298" fill="#0000b4" xlink:href="#a"/><use transform="translate(-87.105 -635.83)" x="161.783" y="718.80298" fill="#0000b4" xlink:href="#d"/><use transform="translate(-87.105 -635.83)" x="115.234" y="730.758" fill="#0000b4" xlink:href="#aa"/><use transform="translate(-87.105 -635.83)" x="117.77944" y="730.758" fill="#0000b4" xlink:href="#w"/><use transform="translate(-87.105 -635.83)" x="125.208" y="730.758" fill="#0000b4" xlink:href="#f"/><use transform="translate(-87.105 -635.83)" x="127.976" y="730.758" fill="#0000b4" xlink:href="#a"/><use transform="translate(-87.105 -635.83)" x="132.55879" y="730.758" fill="#0000b4" xlink:href="#b"/><use transform="translate(-87.105 -635.83)" x="137.45" y="730.758" fill="#0000b4" xlink:href="#f"/><use transform="translate(-87.105 -635.83)" x="142.98721" y="730.758" fill="#0000b4" xlink:href="#y"/><use transform="translate(-87.105 -635.83)" x="153.49576" y="730.758" fill="#0000b4" xlink:href="#f"/><use transform="translate(-87.105 -635.83)" x="156.26801" y="730.758" fill="#0000b4" xlink:href="#a"/><use transform="translate(-87.105 -635.83)" x="161.414" y="730.758" fill="#0000b4" xlink:href="#f"/><use transform="translate(-87.105 -635.83)" x="167.50101" y="730.758" fill="#0000b4" xlink:href="#t"/><use transform="translate(-87.105 -635.83)" x="171.52689" y="730.758" fill="#0000b4" xlink:href="#z"/><use transform="translate(-87.105 -635.83)" x="177.11591" y="730.758" fill="#0000b4" xlink:href="#j"/><use transform="translate(-87.105 -635.83)" x="182.20679" y="730.758" fill="#0000b4" xlink:href="#v"/><use transform="translate(-87.105 -635.83)" x="191.11501" y="730.758" fill="#0000b4" xlink:href="#a"/><use transform="translate(-87.105 -635.83)" x="195.1897" y="730.758" fill="#0000b4" xlink:href="#a"/><use transform="translate(-87.105 -635.83)" x="203.10201" y="730.758" fill="#0000b4" xlink:href="#c"/><use transform="translate(-87.105 -635.83)" x="215.832" y="730.758" fill="#0000b4" xlink:href="#p"/><use transform="translate(-87.105 -635.83)" x="219.70599" y="730.758" fill="#0000b4" xlink:href="#a"/><use transform="translate(-87.105 -635.83)" x="224.2888" y="730.758" fill="#0000b4" xlink:href="#b"/><use transform="translate(-87.105 -635.83)" x="231.394" y="730.758" fill="#0000b4" xlink:href="#k"/><use transform="translate(-87.105 -635.83)" x="241.35699" y="730.758" fill="#0000b4" xlink:href="#g"/><use transform="translate(-87.105 -635.83)" x="245.612" y="730.758" fill="#0000b4" xlink:href="#o"/><use transform="translate(-87.105 -635.83)" x="251.69815" y="730.758" fill="#0000b4" xlink:href="#e"/><use transform="translate(-87.105 -635.83)" x="261.66299" y="730.758" fill="#0000b4" xlink:href="#a"/><use transform="translate(-87.105 -635.83)" x="266.80899" y="730.758" fill="#0000b4" xlink:href="#d"/><use transform="translate(-87.105 -635.83)" x="115.234" y="742.71399" fill="#0000b4" xlink:href="#j"/><use transform="translate(-87.105 -635.83)" x="120.32489" y="742.71399" fill="#0000b4" xlink:href="#ad"/><use transform="translate(-87.105 -635.83)" x="122.87033" y="742.71399" fill="#0000b4" xlink:href="#ac"/><use transform="translate(-87.105 -635.83)" x="127.07056" y="742.71399" fill="#0000b4" xlink:href="#j"/><use transform="translate(-87.105 -635.83)" x="135.481" y="742.71399" fill="#0000b4" xlink:href="#a"/><use transform="translate(-87.105 -635.83)" x="143.394" y="742.71399" fill="#0000b4" xlink:href="#c"/><use transform="translate(-87.105 -635.83)" x="156.12399" y="742.71399" fill="#0000b4" xlink:href="#p"/><use transform="translate(-87.105 -635.83)" x="159.99899" y="742.71399" fill="#0000b4" xlink:href="#a"/><use transform="translate(-87.105 -635.83)" x="167.358" y="742.71399" fill="#0000b4" xlink:href="#k"/><use transform="translate(-87.105 -635.83)" x="177.321" y="742.71399" fill="#0000b4" xlink:href="#g"/><use transform="translate(-87.105 -635.83)" x="181.576" y="742.71399" fill="#0000b4" xlink:href="#o"/><use transform="translate(-87.105 -635.83)" x="187.66216" y="742.71399" fill="#0000b4" xlink:href="#e"/><use transform="translate(-87.105 -635.83)" x="197.627" y="742.71399" fill="#0000b4" xlink:href="#a"/><use transform="translate(-87.105 -635.83)" x="202.20979" y="742.71399" fill="#0000b4" xlink:href="#b"/><use transform="translate(-87.105 -635.83)" x="207.101" y="742.71399" fill="#0000b4" xlink:href="#d"/><use transform="translate(-87.105 -635.83)" x="115.234" y="754.66901" fill="#0000b4" xlink:href="#a"/><use transform="translate(-87.105 -635.83)" x="119.8168" y="754.66901" fill="#0000b4" xlink:href="#b"/><use transform="translate(-87.105 -635.83)" x="127.476" y="754.66901" fill="#0000b4" xlink:href="#c"/><use transform="translate(-87.105 -635.83)" x="140.20599" y="754.66901" fill="#0000b4" xlink:href="#g"/><use transform="translate(-87.105 -635.83)" x="144.46001" y="754.66901" fill="#0000b4" xlink:href="#d"/><use transform="translate(-87.105 -635.83)" x="157.187" y="754.66901" fill="#0000b4" xlink:href="#a"/><use transform="translate(-87.105 -635.83)" x="161.2617" y="754.66901" fill="#0000b4" xlink:href="#a"/><use transform="translate(-87.105 -635.83)" x="165.8445" y="754.66901" fill="#0000b4" xlink:href="#b"/><use transform="translate(-87.105 -635.83)" x="173.502" y="754.66901" fill="#0000b4" xlink:href="#c"/><use transform="translate(-87.105 -635.83)" x="186.23199" y="754.66901" fill="#0000b4" xlink:href="#a"/><use transform="translate(-87.105 -635.83)" x="190.3067" y="754.66901" fill="#0000b4" xlink:href="#a"/><use transform="translate(-87.105 -635.83)" x="194.8895" y="754.66901" fill="#0000b4" xlink:href="#b"/><use transform="translate(-87.105 -635.83)" x="201.994" y="754.66901" fill="#0000b4" xlink:href="#e"/><use transform="translate(-87.105 -635.83)" x="211.95599" y="754.66901" fill="#0000b4" xlink:href="#a"/><use transform="translate(-87.105 -635.83)" x="216.0307" y="754.66901" fill="#0000b4" xlink:href="#a"/><use transform="translate(-87.105 -635.83)" x="221.17599" y="754.66901" fill="#0000b4" xlink:href="#d"/><use transform="translate(-87.105 -635.83)" x="115.234" y="766.62402" fill="#000000" xlink:href="#u"/><use transform="translate(-87.105 -635.83)" x="118.94109" y="766.62402" fill="#000000" xlink:href="#j"/><use transform="translate(-87.105 -635.83)" x="124.03197" y="766.62402" fill="#000000" xlink:href="#t"/><use transform="translate(-87.105 -635.83)" x="128.05786" y="766.62402" fill="#000000" xlink:href="#aj"/><use transform="translate(-87.105 -635.83)" x="133.64688" y="766.62402" fill="#000000" xlink:href="#u"/><use transform="translate(-87.105 -635.83)" x="137.35396" y="766.62402" fill="#000000" xlink:href="#v"/><use transform="translate(-87.105 -635.83)" x="146.263" y="766.62402" fill="#640064" xlink:href="#b"/><use transform="translate(-87.105 -635.83)" x="150.3367" y="766.62402" fill="#640064" xlink:href="#i"/><use transform="translate(-87.105 -635.83)" x="155.68364" y="766.62402" fill="#640064" xlink:href="#h"/><use transform="translate(-87.105 -635.83)" x="166.808" y="766.62402" fill="#640064" xlink:href="#e"/><use transform="translate(-87.105 -635.83)" x="176.771" y="766.62402" fill="#640064" xlink:href="#a"/><use transform="translate(-87.105 -635.83)" x="181.35379" y="766.62402" fill="#640064" xlink:href="#b"/><use transform="translate(-87.105 -635.83)" x="188.459" y="766.62402" fill="#640064" xlink:href="#e"/><use transform="translate(-87.105 -635.83)" x="198.422" y="766.62402" fill="#640064" xlink:href="#a"/><use transform="translate(-87.105 -635.83)" x="202.4967" y="766.62402" fill="#640064" xlink:href="#a"/><use transform="translate(-87.105 -635.83)" x="207.0795" y="766.62402" fill="#640064" xlink:href="#b"/><path d="m1.2405 1.6855h226.31" fill="none" stroke="#000" stroke-miterlimit="10" stroke-width=".63988"/><path d="m1.2405 135.31h226.31" fill="none" stroke="#000" stroke-miterlimit="10" stroke-width=".63988"/><rect transform="matrix(.85617 0 0 .81959 74.906 -93.101)" x="224" y="183" width="202" height="95" rx="3.504" ry="3.6604" clip-path="url(#ap)" fill="url(#ag)" image-rendering="auto" shape-rendering="geometricPrecision" stroke-width=".74974"/><rect transform="matrix(.85617 0 0 .81959 74.906 -147.73)" x="224" y="183" width="202" height="95" rx="3.504" ry="3.6604" clip-path="url(#ao)" fill="url(#af)" image-rendering="auto" shape-rendering="geometricPrecision" stroke-width=".74974"/><rect transform="matrix(.85617 0 0 .81959 74.906 -147.73)" x="224" y="183" width="202" height="95" rx="3.504" ry="3.6604" clip-path="url(#an)" fill="#b7c9e3" image-rendering="auto" shape-rendering="geometricPrecision" stroke-width=".74974"/><rect transform="matrix(.81959 0 0 .81959 83.483 -147.73)" x="224" y="183" width="202" height="95" rx="3.6604" ry="3.6604" clip-path="url(#m)" fill="none" image-rendering="auto" shape-rendering="geometricPrecision" stroke-miterlimit="1.45" stroke-width=".76629"/><line transform="matrix(.81959 0 0 .81959 83.483 -93.101)" x1="224" x2="426" y1="211.34" y2="211.34" clip-path="url(#m)" fill="none" image-rendering="auto" shape-rendering="geometricPrecision" stroke-miterlimit="1.45" stroke-width=".76629"/><text transform="matrix(.81959 0 0 .81959 75.561 -147.07)" x="294.52579" y="201.82809" clip-path="url(#m)" font-family="'DejaVu Sans'" font-size="14.641px" shape-rendering="geometricPrecision" stroke-miterlimit="1.45" stroke-width=".76629" text-rendering="geometricPrecision" xml:space="preserve"><tspan font-family="'DejaVu Sans'" font-size="14.641px" font-weight="bold">KahanSum</tspan></text><line transform="matrix(.81959 0 0 .81959 83.483 -147.73)" x1="224" x2="426" y1="211.34" y2="211.34" clip-path="url(#aq)" fill="none" image-rendering="auto" shape-rendering="geometricPrecision" stroke-miterlimit="1.45" stroke-width=".76629"/><text transform="matrix(.81959 0 0 .81959 86.056 -94.836)" x="228" y="230.1722" clip-path="url(#m)" fill="#006400" font-family="'DejaVu Sans'" shape-rendering="geometricPrecision" stroke="#006400" stroke-linecap="round" stroke-linejoin="round" stroke-miterlimit="1.45" stroke-width=".61006" text-rendering="geometricPrecision" xml:space="preserve">__init__() -&gt; None</text><text transform="matrix(.81959 0 0 .81959 86.056 -92.706)" x="228" y="246.5163" clip-path="url(#m)" fill="#0000b4" font-family="'DejaVu Sans'" shape-rendering="geometricPrecision" stroke="#0000b4" stroke-miterlimit="1.45" stroke-width=".61006" text-rendering="geometricPrecision" xml:space="preserve">add(<tspan fill="#dc785a" font-family="'DejaVu Sans'" stroke="#dc785a">value: int | float</tspan>) -&gt; None</text><path d="m266.69 25.485h172.95" fill="none" stroke="#000" stroke-width="1.5"/><path d="m266.69 79.365h172.95" fill="none" stroke="#000" stroke-width="1.5"/><text transform="rotate(90)" x="27.917601" y="-425.59985" font-family="Ubuntu" font-size="10.5px" font-weight="bold" stroke-width=".75" style="line-height:1.25" xml:space="preserve"><tspan x="27.917601" y="-425.59985" font-family="Ubuntu" font-size="10.5px" font-weight="bold" stroke-width=".75">attributes</tspan></text><text transform="rotate(90)" x="85.58532" y="-425.59985" font-family="Ubuntu" font-size="10.5px" font-weight="bold" stroke-width=".75" style="line-height:1.25" xml:space="preserve"><tspan x="85.58532" y="-425.59985" font-family="Ubuntu" font-size="10.5px" font-weight="bold" stroke-width=".75">methods</tspan></text><path d="m151.02 9.2258h80.584l-0.12085 82.009h25.871" fill="none" marker-end="url(#ae)" stroke="#006400" stroke-width="1.5"/><path d="m145.74 76.402h67.936v30.586h44.073" fill="none" marker-end="url(#ae)" stroke="#0000b4" stroke-width="1.5"/></svg>
