<svg height="143pt" viewBox="0 0 448 143" width="448pt" xmlns="http://www.w3.org/2000/svg" xmlns:xlink="http://www.w3.org/1999/xlink"><defs><linearGradient id="a"><stop offset="0" stop-color="#e8eef7"/><stop offset="1" stop-color="#b7c9e3"/></linearGradient><linearGradient id="b" gradientTransform="matrix(.87599 0 0 .91509 -270.57 -40.141)" gradientUnits="userSpaceOnUse" spreadMethod="reflect" x1="224" x2="426" xlink:href="#a" y1="211.34" y2="278"/><clipPath id="c"><path d="m209 211.34v81.656h232v-81.656z"/></clipPath><clipPath id="d"><path d="m209 168v43.344h232v-43.344z"/></clipPath><clipPath id="e"><path d="m209 168h232v125h-232z"/></clipPath><linearGradient id="f" gradientTransform="matrix(.87599 0 0 .91509 -270.57 26.515)" gradientUnits="userSpaceOnUse" spreadMethod="reflect" x1="224" x2="426" xlink:href="#a" y1="211.34" y2="278"/><clipPath id="g"><path d="m209 211.34v81.656h232v-81.656z"/></clipPath><clipPath id="h"><path d="m209 168h232v125h-232z"/></clipPath><filter id="i" color-interpolation-filters="sRGB" height="1.0622" width="1.0477" x="-.023842" y="-.031122"><feGaussianBlur stdDeviation="1.7180948"/></filter><g id="j"><path d="m.89062-5.5156c.45312-.0625.89062-.03125 1.2969-.25v5.1719h-1.2344v.57812h3.2812v-.57812h-1.25v-6.1719h-.10938c-.15625 0-.35938.23438-.51562.32812-.39062.23438-.85938.32812-1.2969.32812h-.0625c-.078125 0-.10938.03125-.10938.125z"/></g><g id="k"><path d="m2.3594-6.7656c-1.9375.1875-1.9531 2.5938-1.9531 3.5625 0 1.4062.29688 3.4219 2.0625 3.4219.73438 0 1.3594-.42188 1.6875-1.0938.3125-.625.375-1.3125.40625-2v-.48438c0-1.4375-.34375-3.4062-2.0625-3.4062h-.14062zm-1.1719 3.9375c-.015625-.078125-.015625-.15625-.015625-.25v-.45312c0-1.1719.17188-2.625 1.3281-2.625 1.25 0 1.2812 1.8281 1.2812 2.8125v.32812c0 .9375-.078125 2.6094-1.2812 2.6094-.96875 0-1.2188-1.1875-1.2969-2.0156 0-.125 0-.26562-.015625-.40625z"/></g><g id="l"><path d="m.96875-.84375v.828125h.25l-.265625 1.25h.4375l.40625-1.234375v-.84375zm0-3.59375v.84375h.828125v-.84375zm0 0"/></g><g id="m"><path d="m.90625-7.2031c-.15625.03125-.28125.17188-.29688.32812v6.4219c0 .375.23438.45312.48438.45312.09375 0 .17188-.015625.25-.015625h.14062c.23438 0 .4375-.078125.45312-.32812v-6.4375c0-.35938-.25-.4375-.48438-.4375-.09375 0-.17188.015625-.25.015625h-.29687z"/></g><g id="n"><path d="m2.515625-4.75c-1.0625.140625-2.203125.453125-2.203125 2.515625 0 .609375.125 1.25.5625 1.703125.453125.484375 1.171875.625 1.84375.625 1.15625 0 2.4375-.390625 2.4375-2.3125 0-.671875-.109375-1.375-.578125-1.875-.484375-.546875-1.25-.65625-1.921875-.65625zm-.84375 2.75v-.484375c0-.671875 0-1.546875 1.078125-1.546875.65625 0 .96875.421875 1.03125 1.015625.03125.21875.03125.4375.03125.65625v.078125c0 .671875-.03125 1.609375-1.078125 1.609375-.3125 0-.625-.109375-.828125-.359375-.21875-.265625-.203125-.640625-.234375-.96875zm0 0"/></g><g id="o"><path d="m1.8906-3.875v-.32812c0-.34375-.21875-.4375-.48438-.4375h-.39062c-.28125 0-.40625.17188-.40625.45312v3.6719c0 .28125.0625.5.48438.5h.42188c.25 0 .42188-.125.42188-.46875v-1.6719c0-.92188.54688-1.4375 1.3906-1.5156h.0625c.125 0 .15625-.078125.15625-.1875v-.64062c0-.14062-.0625-.1875-.15625-.1875-.54688 0-1.2656.35938-1.5.8125z"/></g><g id="p"><path d="m.90625-4.5625c-.203125.03125-.3125.21875-.3125.421875 0 .078125.015625.140625.015625.21875v3.421875c0 .375.171875.5.484375.5.09375 0 .171875-.015625.25-.015625h.140625c.234375 0 .453125-.078125.453125-.4375 0-.0625 0-.140625 0-.203125v-3.4375c0-.375-.1875-.484375-.484375-.484375-.09375 0-.171875 0-.25 0h-.15625c-.046875 0-.09375 0-.140625.015625zm-.046875-2.640625c-.1875.03125-.296875.171875-.296875.359375v.609375c0 .390625.25.4375.5.4375h.46875c.25 0 .4375-.109375.4375-.390625v-.59375c0-.390625-.25-.4375-.5-.4375h-.46875c-.046875 0-.09375 0-.140625.015625zm0 0"/></g><g id="q"><path d="m.90625-4.578125c-.0625 0-.15625 0-.234375 0-.28125 0-.46875.125-.46875.359375s.171875.375.453125.375c.078125 0 .15625-.015625.21875-.015625v2.359375c0 .6875.078125 1.59375 1.0625 1.59375.578125 0 1.09375-.15625 1.625-.40625.0625-.03125.140625-.078125.15625-.15625 0-.0625-.046875-.15625-.046875-.234375l-.0625-.203125c-.015625-.046875-.0625-.140625-.125-.140625-.078125 0-.1875.109375-.28125.171875-.1875.125-.421875.203125-.625.203125-.359375 0-.421875-.46875-.421875-.84375 0-.125.015625-.234375.015625-.3125v-2.03125h.9375c.28125 0 .421875-.140625.421875-.359375s-.15625-.359375-.40625-.359375h-.953125v-.890625c0-.234375-.125-.40625-.421875-.40625h-.359375c-.234375 0-.484375.046875-.484375.421875zm0 0"/></g><g id="r"><path d="m1.921875-4.03125v-2.734375c0-.421875-.265625-.4375-.5-.4375h-.390625c-.25 0-.4375.109375-.4375.453125v6 .28125c0 .28125.125.453125.4375.453125h.4375c.3125 0 .484375-.109375.484375-.46875v-1.734375c0-.109375-.015625-.234375-.015625-.359375 0-.65625.359375-1.390625 1.109375-1.390625.5625 0 .578125.40625.578125.765625v2.75c0 .25.109375.4375.375.4375h.515625c.3125 0 .46875-.125.46875-.4375v-2.625c0-.34375 0-.703125-.15625-1.03125-.25-.46875-.796875-.578125-1.265625-.578125-.625 0-1.09375.15625-1.640625.65625zm0 0"/></g><g id="s"><path d="m.859375-4.578125h-.125c-.25 0-.4375.125-.4375.359375 0 .21875.15625.359375.40625.359375h.15625v3.1875c0 .0625-.015625.140625-.015625.21875 0 .390625.265625.4375.515625.4375h.359375c.390625 0 .46875-.21875.46875-.484375v-3.359375h.546875c.234375 0 .40625-.15625.40625-.359375s-.140625-.359375-.40625-.359375h-.578125v-1.21875c0-.359375.03125-.796875.671875-.796875.34375 0 .5.140625.75.328125.03125.03125.0625.046875.09375.046875.125 0 .125-.109375.125-.1875v-.359375c0-.078125.015625-.15625.015625-.21875 0-.296875-.484375-.328125-.796875-.328125h-.1875c-.546875 0-1.15625.078125-1.546875.515625-.28125.3125-.390625.71875-.421875 1.125zm0 0"/></g><g id="t"><path d="m3.65625-4.328125c-.421875-.234375-.78125-.359375-1.296875-.359375-.5 0-1.046875.171875-1.40625.515625-.5.5-.578125 1.265625-.578125 1.921875 0 .640625.109375 1.328125.546875 1.796875.34375.390625.90625.546875 1.421875.546875.484375 0 .84375-.140625 1.28125-.421875.046875.296875.28125.3125.484375.3125h.40625c.21875 0 .46875-.046875.46875-.4375 0-.078125-.015625-.15625-.015625-.21875v-5.875c0-.0625.015625-.125.015625-.21875 0-.40625-.265625-.4375-.515625-.4375h-.375c-.25 0-.4375.09375-.4375.421875zm-1.9375 2.421875v-.453125c0-.6875.0625-1.609375 1.09375-1.609375.265625 0 .75.125.8125.359375v2.40625c0 .34375-.546875.578125-.921875.578125-.265625 0-.546875-.09375-.703125-.296875-.234375-.28125-.234375-.65625-.28125-.984375zm0 0"/></g><g id="u"><path d="m1.578125-2.140625h2.71875c.28125 0 .484375-.09375.484375-.4375 0-.578125-.109375-1.25-.578125-1.671875-.390625-.359375-.9375-.5-1.46875-.5-.65625 0-1.3125.125-1.8125.609375-.5.46875-.609375 1.1875-.625 1.828125 0 .640625.15625 1.265625.59375 1.734375.5.53125 1.265625.671875 1.96875.671875.484375 0 .96875-.109375 1.40625-.296875l.296875-.140625c.078125-.046875.15625-.09375.15625-.1875 0-.015625-.015625-.046875-.015625-.078125l-.03125-.5c-.03125-.0625-.03125-.171875-.125-.171875-.046875 0-.09375.03125-.140625.0625-.4375.359375-.953125.609375-1.546875.609375-.34375 0-.703125-.09375-.9375-.375-.265625-.296875-.34375-.765625-.34375-1.15625zm.015625-.640625c.015625-.640625.375-1.25 1.09375-1.25.796875 0 .984375.671875.984375 1.25zm0 0"/></g><g id="v"><path d="m1.890625-4v-.171875c0-.328125-.15625-.46875-.46875-.46875h-.40625c-.28125 0-.421875.1875-.421875.453125v3.734375c0 .421875.28125.4375.515625.4375h.421875c.40625 0 .421875-.28125.421875-.5v-2.078125c0-.703125.375-1.375 1.109375-1.375h.09375c.46875.078125.46875.40625.46875.734375v2.78125c0 .25.09375.4375.375.4375h.515625c.3125 0 .46875-.125.46875-.4375v-2.625c0-.34375 0-.71875-.171875-1.03125-.25-.46875-.78125-.578125-1.25-.578125-.625 0-1.15625.1875-1.671875.6875zm0 0"/></g><g id="w"><path d="m1.90625-4.75c-.71875.078125-1.53125.3125-1.53125 1.40625 0 .75.578125 1.265625 1.265625 1.4375.453125.125 1.25.109375 1.3125.640625v.046875c0 .484375-.4375.546875-.765625.546875-.609375 0-1.03125-.25-1.5-.71875-.03125-.03125-.0625-.0625-.109375-.0625-.171875 0-.265625.765625-.265625.9375 0 .203125.4375.34375.671875.421875.390625.140625.796875.1875 1.203125.1875.796875 0 1.765625-.21875 1.765625-1.484375 0-.765625-.5625-1.3125-1.21875-1.5-.421875-.125-1.375-.0625-1.375-.703125.0625-.328125.28125-.421875.546875-.4375h.15625c.515625 0 .875.140625 1.328125.5.03125.03125.078125.0625.125.0625.171875 0 .25-.671875.25-.8125 0-.296875-1.046875-.46875-1.578125-.46875zm0 0"/></g><g id="x"><path d="m3.65625-.453125c0 .390625.234375.453125.5.453125.09375 0 .1875-.015625.265625-.015625h.109375c.21875 0 .453125-.03125.453125-.421875v-3.703125c0-.390625-.25-.4375-.46875-.4375h-.453125c-.359375 0-.4375.234375-.4375.484375v1.9375c0 .109375.015625.25.015625.359375 0 .625-.3125 1.28125-1.078125 1.28125h-.109375c-.328125-.015625-.5-.09375-.5-.6875v-2.921875c0-.265625-.09375-.453125-.390625-.453125h-.5c-.328125 0-.46875.15625-.46875.453125v2.765625c0 .296875.015625.59375.15625.859375.25.515625.9375.609375 1.453125.609375.53125 0 1.0625-.15625 1.453125-.5625zm0 0"/></g><g id="y"><path d="m4.71875-4.046875c-.390625.09375-.390625.46875-.390625.484375 0 .125.09375.3125.34375.3125.1875 0 .484375-.140625.484375-.53125 0-.5-.578125-.625-.859375-.625-.546875 0-.875.484375-.984375.671875-.21875-.59375-.703125-.671875-.953125-.671875-1 0-1.53125 1.3125-1.53125 1.53125 0 .109375.09375.109375.15625.109375.125 0 .125-.015625.171875-.171875.265625-.859375.78125-1.25 1.1875-1.25.28125 0 .484375.234375.484375.625 0 .25-.125.734375-.21875 1.09375-.109375.421875-.109375.453125-.234375.90625-.15625.65625-.359375 1.453125-.953125 1.453125-.03125 0-.28125 0-.4375-.140625.296875-.078125.375-.328125.375-.484375 0-.25-.203125-.3125-.328125-.3125-.25 0-.5.203125-.5.53125 0 .390625.421875.625.875.625.484375 0 .8125-.375.96875-.671875.203125.5625.703125.671875.953125.671875 1.03125 0 1.53125-1.328125 1.53125-1.53125 0-.109375-.078125-.109375-.140625-.109375-.125 0-.140625.015625-.1875.171875-.265625.859375-.765625 1.25-1.1875 1.25-.1875 0-.46875-.125-.46875-.640625 0-.234375.109375-.671875.203125-1 .109375-.421875.25-1.046875.328125-1.375.140625-.515625.40625-1.0625.875-1.0625.03125 0 .28125 0 .4375.140625zm0 0"/></g><g id="z"><path d="m2.46875-1.96875c.4375.109375.875.203125.875.75 0 .3125-.265625 1.109375-1.296875 1.109375-.21875 0-.796875-.046875-.953125-.5625.515625-.046875.515625-.46875.515625-.484375 0-.1875-.140625-.3125-.34375-.3125-.234375 0-.515625.15625-.515625.609375 0 .609375.578125.96875 1.296875.96875 1.484375 0 1.875-1.21875 1.875-1.671875 0-.875-.78125-1.046875-1.1875-1.140625-.28125-.0625-.640625-.140625-.640625-.5625 0-.25.203125-.921875 1-.921875.28125 0 .640625.09375.75.484375-.3125.046875-.390625.3125-.390625.40625 0 .109375.0625.28125.296875.28125.171875 0 .421875-.109375.421875-.546875 0-.453125-.40625-.84375-1.0625-.84375-1.171875 0-1.578125.953125-1.578125 1.46875 0 .78125.65625.90625.9375.96875zm0 0"/></g><g id="A"><path d="m5.109375-3.890625c.03125-.0625.03125-.109375.03125-.140625 0-.109375-.078125-.265625-.28125-.265625-.296875 0-.359375.296875-.390625.375l-.71875 2.90625c-.046875.171875-.046875.203125-.140625.328125-.1875.28125-.484375.578125-.921875.578125s-.53125-.4375-.53125-.765625c0-.609375.328125-1.5.578125-2.1875.078125-.203125.125-.34375.125-.53125 0-.5-.328125-.8125-.75-.8125-.9375 0-1.28125 1.46875-1.28125 1.53125 0 .109375.09375.109375.15625.109375.125 0 .125-.03125.171875-.171875.078125-.296875.34375-1.25.921875-1.25.109375 0 .21875.03125.21875.296875 0 .234375-.09375.5-.234375.890625-.265625.703125-.515625 1.4375-.515625 1.953125 0 .875.578125 1.15625 1.109375 1.15625s.875-.296875 1.109375-.59375c.1875.53125.609375.59375.796875.59375.375 0 .578125-.25.734375-.5625.171875-.375.296875-.953125.296875-.96875 0-.109375-.078125-.109375-.15625-.109375-.109375 0-.125.015625-.1875.234375-.140625.5625-.328125 1.1875-.671875 1.1875-.25 0-.25-.265625-.25-.40625 0-.078125 0-.234375.0625-.515625zm0 0"/></g><g id="B"><path d="m2.296875-1.75c.046875-.21875.109375-.421875.15625-.640625.125-.484375.125-.515625.25-.71875.28125-.5.71875-1.078125 1.40625-1.078125.453125 0 .453125.515625.453125.65625 0 .265625-.0625.5625-.09375.65625l-.640625 2.578125c-.015625.0625-.03125.125-.03125.140625 0 .109375.078125.265625.28125.265625.125 0 .28125-.0625.359375-.265625l.390625-1.59375c.0625-.21875.109375-.421875.171875-.640625.125-.484375.125-.515625.25-.71875.28125-.5.71875-1.078125 1.40625-1.078125.453125 0 .453125.515625.453125.65625 0 .625-.4375 1.8125-.578125 2.203125-.125.34375-.15625.4375-.15625.640625 0 .4375.28125.796875.75.796875.9375 0 1.265625-1.484375 1.265625-1.53125 0-.109375-.078125-.109375-.140625-.109375-.140625 0-.140625.03125-.171875.171875-.078125.265625-.359375 1.25-.9375 1.25-.203125 0-.21875-.15625-.21875-.296875 0-.234375.109375-.5.1875-.734375.203125-.53125.609375-1.65625.609375-2.234375 0-.828125-.578125-1.03125-1.046875-1.03125-.703125 0-1.203125.4375-1.5.875-.078125-.6875-.59375-.875-1.046875-.875-.59375 0-1.078125.328125-1.421875.78125-.078125-.484375-.40625-.78125-.84375-.78125-.359375 0-.546875.234375-.71875.53125-.1875.390625-.3125.984375-.3125 1 0 .109375.09375.109375.15625.109375.125 0 .125-.015625.1875-.234375.171875-.703125.359375-1.1875.671875-1.1875.265625 0 .265625.296875.265625.40625 0 .15625-.03125.34375-.078125.5l-.75 2.984375c-.015625.0625-.03125.125-.03125.140625 0 .109375.078125.265625.28125.265625.125 0 .296875-.0625.359375-.265625zm0 0"/></g><g id="C"><path d="m4.34375-3.765625c-.5.0625-.5.46875-.5.5 0 .15625.109375.3125.328125.3125.28125 0 .515625-.21875.515625-.59375 0-.484375-.4375-.859375-1.0625-.859375-1.25 0-2.53125 1.421875-2.53125 2.875 0 .984375.59375 1.640625 1.46875 1.640625 1.28125 0 2.109375-1 2.109375-1.140625 0-.0625-.09375-.171875-.171875-.171875-.03125 0-.046875.015625-.125.109375-.734375.9375-1.625.984375-1.796875.984375-.53125 0-.78125-.453125-.78125-1.03125 0-.53125.265625-1.578125.53125-2.046875.359375-.65625.859375-1 1.296875-1 .109375 0 .5625.015625.71875.421875zm0 0"/></g><g id="D"><path d="m3.296875-1.421875c0-.109375-.078125-.109375-.140625-.109375-.140625 0-.140625.03125-.171875.171875-.078125.296875-.359375 1.25-.9375 1.25-.078125 0-.21875-.015625-.21875-.28125 0-.25.140625-.59375.265625-.953125l.640625-1.703125c.09375-.296875.109375-.375.109375-.5625 0-.546875-.375-.796875-.734375-.796875-.9375 0-1.28125 1.484375-1.28125 1.53125 0 .109375.09375.109375.15625.109375.125 0 .125-.03125.171875-.171875.09375-.328125.34375-1.25.921875-1.25.109375 0 .21875.046875.21875.28125s-.109375.53125-.171875.71875l-.296875.828125c-.140625.328125-.25.65625-.375.984375-.140625.375-.171875.484375-.171875.6875 0 .390625.234375.796875.75.796875.9375 0 1.265625-1.5 1.265625-1.53125zm-.046875-4.78125c0-.25-.203125-.34375-.34375-.34375-.203125 0-.46875.203125-.46875.484375 0 .25.1875.328125.328125.328125.203125 0 .484375-.1875.484375-.46875zm0 0"/></g><g id="E"><path d="m2.59375-3.984375h.84375c.171875 0 .28125 0 .28125-.1875 0-.125-.09375-.125-.25-.125h-.796875l.375-1.46875c.03125-.140625.03125-.171875.03125-.21875 0-.203125-.171875-.25-.265625-.25-.25 0-.34375.203125-.390625.359375l-.390625 1.578125h-.84375c-.171875 0-.28125 0-.28125.1875 0 .125.09375.125.25.125h.796875l-.71875 2.859375c-.015625.03125-.046875.203125-.046875.34375 0 .484375.328125.890625.84375.890625 1.015625 0 1.515625-1.484375 1.515625-1.53125 0-.109375-.078125-.109375-.140625-.109375-.125 0-.125.015625-.203125.203125-.1875.46875-.578125 1.21875-1.15625 1.21875-.265625 0-.265625-.25-.265625-.40625 0-.078125 0-.234375.078125-.515625zm0 0"/></g><g id="F"><path d="m9.046875-2.296875c.1875 0 .359375 0 .359375-.203125 0-.1875-.171875-.1875-.359375-.1875h-7.40625c.546875-.421875.828125-.828125.90625-.96875.4375-.6875.53125-1.3125.53125-1.3125 0-.125-.125-.125-.203125-.125-.171875 0-.1875.015625-.21875.203125-.234375.96875-.828125 1.796875-1.953125 2.265625-.109375.046875-.140625.0625-.140625.125 0 .078125.046875.09375.140625.140625 1.046875.421875 1.703125 1.203125 1.953125 2.3125.03125.125.046875.15625.21875.15625.078125 0 .203125 0 .203125-.125 0-.015625-.09375-.640625-.515625-1.3125-.203125-.296875-.484375-.640625-.921875-.96875zm0 0"/></g><g id="G"><path d="m5.4688-2.2969c.15625 0 .34375 0 .34375-.20312 0-.1875-.1875-.1875-.34375-.1875h-4.2344c.125-1.3438 1.2656-2.2969 2.6719-2.2969h1.5625c.15625 0 .34375 0 .34375-.20312s-.1875-.20312-.34375-.20312h-1.5781c-1.7031 0-3.0625 1.2969-3.0625 2.8906 0 1.6094 1.3594 2.9062 3.0625 2.9062h1.5781c.15625 0 .34375 0 .34375-.20312s-.1875-.20312-.34375-.20312h-1.5625c-1.4062 0-2.5469-.95312-2.6719-2.2969z"/></g><g id="H"><path d="m6.5625-2.296875c.171875 0 .359375 0 .359375-.203125 0-.1875-.1875-.1875-.359375-.1875h-5.390625c-.171875 0-.34375 0-.34375.1875 0 .203125.171875.203125.34375.203125zm0 0"/></g><g id="I"><path d="m1.578125-7.125c0-.171875 0-.359375-.1875-.359375-.203125 0-.203125.1875-.203125.359375v9.265625c0 .171875 0 .359375.203125.359375.1875 0 .1875-.1875.1875-.359375zm0 0"/></g><g id="J"><path d="m6.71875-3.234375c.140625-.0625.203125-.125.203125-.21875s-.046875-.15625-.203125-.21875l-5.5-2.59375c-.125-.078125-.171875-.078125-.1875-.078125-.125 0-.203125.09375-.203125.203125 0 .125.078125.171875.1875.21875l5.234375 2.46875-5.21875 2.453125c-.1875.09375-.203125.171875-.203125.234375 0 .109375.09375.203125.203125.203125.03125 0 .046875 0 .171875-.078125zm-.15625 4.59375c.171875 0 .359375 0 .359375-.1875 0-.203125-.21875-.203125-.359375-.203125h-5.375c-.15625 0-.359375 0-.359375.203125 0 .1875.171875.1875.34375.1875zm0 0"/></g><g id="K"><path d="m1.90625-.53125c0-.28125-.234375-.53125-.515625-.53125-.296875 0-.53125.25-.53125.53125 0 .296875.234375.53125.53125.53125.28125 0 .515625-.234375.515625-.53125zm0 0"/></g><g id="L"><path d="m.875-.59375c-.03125.15625-.09375.390625-.09375.4375 0 .171875.140625.265625.296875.265625.125 0 .296875-.078125.375-.28125 0-.015625.125-.484375.1875-.734375l.21875-.890625c.046875-.234375.109375-.453125.171875-.671875.03125-.171875.109375-.46875.125-.5.140625-.3125.671875-1.21875 1.625-1.21875.453125 0 .53125.375.53125.703125 0 .609375-.484375 1.890625-.640625 2.3125-.09375.234375-.109375.359375-.109375.46875 0 .46875.359375.8125.828125.8125.9375 0 1.296875-1.453125 1.296875-1.53125 0-.109375-.078125-.109375-.109375-.109375-.109375 0-.109375.03125-.15625.1875-.203125.671875-.53125 1.234375-1.015625 1.234375-.171875 0-.234375-.09375-.234375-.328125 0-.25.078125-.484375.171875-.703125.1875-.53125.609375-1.625.609375-2.203125 0-.65625-.421875-1.0625-1.140625-1.0625-.90625 0-1.390625.640625-1.5625.875-.046875-.5625-.453125-.875-.921875-.875-.453125 0-.640625.390625-.734375.5625-.171875.34375-.296875.9375-.296875.96875 0 .109375.09375.109375.109375.109375.109375 0 .109375-.015625.171875-.234375.171875-.703125.375-1.1875.734375-1.1875.1875 0 .296875.125.296875.453125 0 .21875-.03125.328125-.15625.84375zm0 0"/></g><g id="M"><path d="m4.0781-2.2969h2.7812c.14062 0 .32812 0 .32812-.20312 0-.1875-.1875-.1875-.32812-.1875h-2.7812v-2.7969c0-.14062 0-.32812-.20312-.32812s-.20312.1875-.20312.32812v2.7969h-2.7812c-.14062 0-.32812 0-.32812.1875 0 .20312.1875.20312.32812.20312h2.7812v2.7969c0 .14062 0 .32812.20312.32812s.20312-.1875.20312-.32812z"/></g><g id="N"><path d="m2.5469 2.5v-.40625h-.96875v-9.1719h.96875v-.40625h-1.375v9.9844z"/></g><g id="O"><path d="m1.5781-7.4844h-1.3594v.40625h.96875v9.1719h-.96875v.40625h1.3594z"/></g><g id="P"><path d="m3.2969 2.3906c0-.03125 0-.046875-.17188-.21875-1.2344-1.25-1.5625-3.1406-1.5625-4.6719 0-1.7344.375-3.4688 1.6094-4.7031.125-.125.125-.14062.125-.17188 0-.078125-.03125-.10938-.09375-.10938-.10938 0-1 .6875-1.5938 1.9531-.5 1.0938-.625 2.2031-.625 3.0312 0 .78125.10938 1.9844.65625 3.125.60938 1.2188 1.4531 1.875 1.5625 1.875.0625 0 .09375-.03125.09375-.10938z"/></g><g id="Q"><path d="m2.875-2.5c0-.76562-.10938-1.9688-.65625-3.1094-.59375-1.2188-1.4531-1.875-1.5469-1.875-.0625 0-.10938.046875-.10938.10938 0 .03125 0 .046875.1875.23438.98438.98438 1.5469 2.5625 1.5469 4.6406 0 1.7188-.35938 3.4688-1.5938 4.7188-.14062.125-.14062.14062-.14062.17188 0 .0625.046875.10938.10938.10938.09375 0 1-.6875 1.5781-1.9531.51562-1.0938.625-2.2031.625-3.0469z"/></g></defs><rect fill-opacity=".5" filter="url(#i)" height="132.49" opacity=".9" rx="3" width="172.95" x="269.69" y="5.2541"/><g transform="translate(-87.105 -635.83)"><g fill="#000001"><use x="99.894997" xlink:href="#z" y="647.96899"/><use x="103.9687" xlink:href="#A" y="647.96899"/><use x="109.31564" xlink:href="#B" y="647.96899"/><use x="120.994" xlink:href="#F" y="647.96899"/><use x="133.724" xlink:href="#k" y="647.96899"/><use x="138.7043" xlink:href="#l" y="647.96899"/><use x="151.431" xlink:href="#C" y="647.96899"/><use x="156.01379" xlink:href="#z" y="647.96899"/><use x="163.673" xlink:href="#F" y="647.96899"/><use x="176.403" xlink:href="#k" y="647.96899"/><use x="181.3833" xlink:href="#l" y="647.96899"/><use x="194.11" xlink:href="#C" y="647.96899"/><use x="198.18471" xlink:href="#C" y="647.96899"/><use x="202.7675" xlink:href="#z" y="647.96899"/><use x="210.425" xlink:href="#F" y="647.96899"/><use x="223.155" xlink:href="#k" y="647.96899"/><use x="228.1353" xlink:href="#l" y="647.96899"/></g><use x="99.894997" xlink:href="#s" y="659.92401"/><use x="103.24243" xlink:href="#n" y="659.92401"/><use x="108.41203" xlink:href="#o" y="659.92401"/><use x="115.597" xlink:href="#D" y="659.92401"/><use x="122.434" xlink:href="#G" y="659.92401"/><use x="131.843" xlink:href="#k" y="659.92401"/><use x="136.823" xlink:href="#K" y="659.92401"/><use x="139.59061" xlink:href="#K" y="659.92401"/><use x="142.35822" xlink:href="#L" y="659.92401"/><use x="150.552" xlink:href="#H" y="659.92401"/><use x="160.515" xlink:href="#j" y="659.92401"/><use x="168.815" xlink:href="#t" y="659.92401"/><use x="174.40402" xlink:href="#n" y="659.92401"/></g><path d="m17.969 131.62v-103.94" stroke="#000" stroke-miterlimit="10" stroke-width=".398"/><g transform="translate(-87.105 -635.83)"><g fill="#000003"><use x="115.234" xlink:href="#E" y="670.98297"/><use x="122.256" xlink:href="#F" y="670.98297"/><use x="134.98599" xlink:href="#z" y="670.98297"/><use x="139.05971" xlink:href="#A" y="670.98297"/><use x="144.40663" xlink:href="#B" y="670.98297"/><use x="155.532" xlink:href="#M" y="670.98297"/><use x="180.92101" xlink:href="#l" y="670.98297"/><use x="115.234" xlink:href="#p" y="682.93799"/><use x="117.77944" xlink:href="#s" y="682.93799"/><use x="125.208" xlink:href="#I" y="682.93799"/><use x="127.976" xlink:href="#z" y="682.93799"/><use x="132.04971" xlink:href="#A" y="682.93799"/><use x="137.39664" xlink:href="#B" y="682.93799"/><use x="146.30701" xlink:href="#I" y="682.93799"/><use x="151.84421" xlink:href="#J" y="682.93799"/><use x="162.36273" xlink:href="#I" y="682.93799"/><use x="180.552" xlink:href="#I" y="682.93799"/><use x="186.63901" xlink:href="#q" y="682.93799"/><use x="190.66489" xlink:href="#r" y="682.93799"/><use x="196.25391" xlink:href="#u" y="682.93799"/><use x="201.34479" xlink:href="#v" y="682.93799"/><use x="210.25301" xlink:href="#C" y="682.93799"/><use x="218.16701" xlink:href="#F" y="682.93799"/><use x="230.897" xlink:href="#P" y="682.93799"/><use x="234.771" xlink:href="#z" y="682.93799"/><use x="238.84471" xlink:href="#A" y="682.93799"/><use x="244.19164" xlink:href="#B" y="682.93799"/><use x="255.31599" xlink:href="#H" y="682.93799"/><use x="265.27899" xlink:href="#E" y="682.93799"/><use x="269.534" xlink:href="#Q" y="682.93799"/><use x="275.62015" xlink:href="#M" y="682.93799"/><use x="301.01099" xlink:href="#l" y="682.93799"/><use x="115.234" xlink:href="#u" y="694.89301"/><use x="120.32489" xlink:href="#m" y="694.89301"/><use x="122.87033" xlink:href="#w" y="694.89301"/><use x="127.07056" xlink:href="#u" y="694.89301"/><use x="135.481" xlink:href="#C" y="694.89301"/><use x="143.394" xlink:href="#F" y="694.89301"/><use x="156.12399" xlink:href="#P" y="694.89301"/><use x="165.494" xlink:href="#y" y="670.98297"/><use x="171.31599" xlink:href="#N" y="670.98297"/><use x="174.08299" xlink:href="#D" y="670.98297"/><use x="178.153" xlink:href="#O" y="670.98297"/><use x="165.125" xlink:href="#y" y="682.93799"/><use x="170.94701" xlink:href="#N" y="682.93799"/><use x="173.714" xlink:href="#D" y="682.93799"/><use x="177.784" xlink:href="#O" y="682.93799"/><use x="285.58499" xlink:href="#y" y="682.93799"/><use x="291.40601" xlink:href="#N" y="682.93799"/><use x="294.173" xlink:href="#D" y="682.93799"/><use x="298.24399" xlink:href="#O" y="682.93799"/><use x="159.99899" xlink:href="#y" y="694.89301"/><use x="165.82001" xlink:href="#N" y="694.89301"/><use x="168.58701" xlink:href="#D" y="694.89301"/><use x="172.658" xlink:href="#O" y="694.89301"/><use x="177.63901" xlink:href="#H" y="694.89301"/><use x="187.601" xlink:href="#E" y="694.89301"/><use x="191.856" xlink:href="#Q" y="694.89301"/><use x="197.94215" xlink:href="#M" y="694.89301"/><use x="207.907" xlink:href="#z" y="694.89301"/><use x="211.98071" xlink:href="#A" y="694.89301"/><use x="217.32764" xlink:href="#B" y="694.89301"/><use x="226.239" xlink:href="#l" y="694.89301"/><use x="115.234" xlink:href="#z" y="706.84802"/><use x="119.30771" xlink:href="#A" y="706.84802"/><use x="124.65463" xlink:href="#B" y="706.84802"/><use x="136.33299" xlink:href="#F" y="706.84802"/><use x="149.063" xlink:href="#E" y="706.84802"/><use x="153.31799" xlink:href="#l" y="706.84802"/><use x="115.234" xlink:href="#E" y="718.80298"/><use x="122.256" xlink:href="#F" y="718.80298"/><use x="134.98599" xlink:href="#C" y="718.80298"/><use x="139.5688" xlink:href="#z" y="718.80298"/><use x="146.674" xlink:href="#M" y="718.80298"/><use x="156.63699" xlink:href="#C" y="718.80298"/><use x="161.783" xlink:href="#l" y="718.80298"/><use x="115.234" xlink:href="#p" y="730.758"/><use x="117.77944" xlink:href="#s" y="730.758"/><use x="125.208" xlink:href="#I" y="730.758"/><use x="127.976" xlink:href="#C" y="730.758"/><use x="132.55879" xlink:href="#z" y="730.758"/><use x="137.45" xlink:href="#I" y="730.758"/><use x="142.98721" xlink:href="#J" y="730.758"/><use x="153.49576" xlink:href="#I" y="730.758"/><use x="156.26801" xlink:href="#C" y="730.758"/><use x="161.414" xlink:href="#I" y="730.758"/><use x="167.50101" xlink:href="#q" y="730.758"/><use x="171.52689" xlink:href="#r" y="730.758"/><use x="177.11591" xlink:href="#u" y="730.758"/><use x="182.20679" xlink:href="#v" y="730.758"/><use x="191.11501" xlink:href="#C" y="730.758"/><use x="195.1897" xlink:href="#C" y="730.758"/><use x="203.10201" xlink:href="#F" y="730.758"/><use x="215.832" xlink:href="#P" y="730.758"/><use x="219.70599" xlink:href="#C" y="730.758"/><use x="224.2888" xlink:href="#z" y="730.758"/><use x="231.394" xlink:href="#H" y="730.758"/><use x="241.35699" xlink:href="#E" y="730.758"/><use x="245.612" xlink:href="#Q" y="730.758"/><use x="251.69815" xlink:href="#M" y="730.758"/><use x="261.66299" xlink:href="#C" y="730.758"/><use x="266.80899" xlink:href="#l" y="730.758"/><use x="115.234" xlink:href="#u" y="742.71399"/><use x="120.32489" xlink:href="#m" y="742.71399"/><use x="122.87033" xlink:href="#w" y="742.71399"/><use x="127.07056" xlink:href="#u" y="742.71399"/><use x="135.481" xlink:href="#C" y="742.71399"/><use x="143.394" xlink:href="#F" y="742.71399"/><use x="156.12399" xlink:href="#P" y="742.71399"/><use x="159.99899" xlink:href="#C" y="742.71399"/><use x="167.358" xlink:href="#H" y="742.71399"/><use x="177.321" xlink:href="#E" y="742.71399"/><use x="181.576" xlink:href="#Q" y="742.71399"/><use x="187.66216" xlink:href="#M" y="742.71399"/><use x="197.627" xlink:href="#C" y="742.71399"/><use x="202.20979" xlink:href="#z" y="742.71399"/><use x="207.101" xlink:href="#l" y="742.71399"/><use x="115.234" xlink:href="#C" y="754.66901"/><use x="119.8168" xlink:href="#z" y="754.66901"/><use x="127.476" xlink:href="#F" y="754.66901"/><use x="140.20599" xlink:href="#E" y="754.66901"/><use x="144.46001" xlink:href="#l" y="754.66901"/><use x="157.187" xlink:href="#C" y="754.66901"/><use x="161.2617" xlink:href="#C" y="754.66901"/><use x="165.8445" xlink:href="#z" y="754.66901"/><use x="173.502" xlink:href="#F" y="754.66901"/><use x="186.23199" xlink:href="#C" y="754.66901"/><use x="190.3067" xlink:href="#C" y="754.66901"/><use x="194.8895" xlink:href="#z" y="754.66901"/><use x="201.994" xlink:href="#M" y="754.66901"/><use x="211.95599" xlink:href="#C" y="754.66901"/><use x="216.0307" xlink:href="#C" y="754.66901"/><use x="221.17599" xlink:href="#l" y="754.66901"/></g><use x="115.234" xlink:href="#o" y="766.62402"/><use x="118.94109" xlink:href="#u" y="766.62402"/><use x="124.03197" xlink:href="#q" y="766.62402"/><use x="128.05786" xlink:href="#x" y="766.62402"/><use x="133.64688" xlink:href="#o" y="766.62402"/><use x="137.35396" xlink:href="#v" y="766.62402"/><use x="146.263" xlink:href="#z" y="766.62402"/><use x="150.3367" xlink:href="#A" y="766.62402"/><use x="155.68364" xlink:href="#B" y="766.62402"/><use x="166.808" xlink:href="#M" y="766.62402"/><use x="176.771" xlink:href="#C" y="766.62402"/><use x="181.35379" xlink:href="#z" y="766.62402"/><use x="188.459" xlink:href="#M" y="766.62402"/><use x="198.422" xlink:href="#C" y="766.62402"/><use x="202.4967" xlink:href="#C" y="766.62402"/><use x="207.0795" xlink:href="#z" y="766.62402"/></g><path d="m1.2405 1.6855h226.31" fill="none" stroke="#000" stroke-miterlimit="10" stroke-width=".63988"/><path d="m1.2405 135.31h226.31" fill="none" stroke="#000" stroke-miterlimit="10" stroke-width=".63988"/><g shape-rendering="geometricPrecision" text-rendering="geometricPrecision"><rect clip-path="url(#c)" fill="url(#b)" height="95" rx="3.504" ry="3.6604" transform="matrix(.85617 0 0 .81959 74.906 -93.101)" width="202" x="224" y="183"/><rect clip-path="url(#g)" fill="url(#f)" height="95" rx="3.504" ry="3.6604" transform="matrix(.85617 0 0 .81959 74.906 -147.73)" width="202" x="224" y="183"/><rect clip-path="url(#d)" fill="#b7c9e3" height="95" rx="3.504" ry="3.6604" transform="matrix(.85617 0 0 .81959 74.906 -147.73)" width="202" x="224" y="183"/><g stroke-miterlimit="1.45" stroke-width=".76629"><rect clip-path="url(#e)" fill="none" height="95" rx="3.6604" transform="matrix(.81959 0 0 .81959 83.483 -147.73)" width="202" x="224" y="183"/><path clip-path="url(#e)" d="m224 211.34h202" fill="none" transform="matrix(.81959 0 0 .81959 83.483 -93.101)"/><text clip-path="url(#e)" font-family="DejaVu Sans" font-size="14.641" transform="matrix(.81959 0 0 .81959 75.561 -147.07)" x="294.52579" y="201.82809"><tspan font-family="DejaVu Sans" font-size="14.641" font-weight="bold">KahanSum</tspan></text><path clip-path="url(#h)" d="m224 211.34h202" fill="none" transform="matrix(.81959 0 0 .81959 83.483 -147.73)"/></g></g><path d="m266.69 25.485h172.95" fill="none" stroke="#000" stroke-width="1.5"/><path d="m266.69 79.365h172.95" fill="none" stroke="#000" stroke-width="1.5"/><text font-family="Ubuntu" font-size="10.5" font-weight="bold" stroke-width=".75" transform="rotate(90)" x="27.917601" y="-425.59985"><tspan font-family="Ubuntu" font-size="10.5" font-weight="bold" stroke-width=".75" x="27.917601" y="-425.59985">attributes</tspan></text></svg>