<?xml version="1.0" encoding="UTF-8"?>
<svg width="113pt" height="68pt" version="1.1" viewBox="0 0 113 68" xmlns="http://www.w3.org/2000/svg"><defs><marker id="a" overflow="visible" markerHeight="6.7330775" markerWidth="5.8241119" orient="auto-start-reverse" preserveAspectRatio="xMidYMid" viewBox="0 0 5.8241121 6.7330776"><path transform="scale(.5)" d="m5.77 0-8.65 5v-10z" fill="context-fill" fill-rule="evenodd" stroke="context-stroke" stroke-width="2"/></marker></defs><text x="156.68556" y="63.914368" font-family="'DejaVu Sans'" font-size="4.2333px" stroke-width=".35278"><tspan x="156.68556" y="63.914368" font-family="'DejaVu Sans'" stroke-width=".35278"/></text><text x="213.57736" y="6.1751776" font-family="'DejaVu Sans'" font-size="2.4694px" stroke-width=".35278"><tspan x="213.57736" y="6.1751776" font-family="'DejaVu Sans'" font-size="2.4694px" stroke-width=".35278"/></text><g transform="translate(38.078 -2.0409)" stroke-width=".35278"><path d="m56.923 21.364h16.572v-17.757h-33.129v17.757z" fill="#ee7105" stroke="#b5161e" stroke-linejoin="round" stroke-miterlimit="10"/><text x="42.818352" y="7.4373531" font-family="'DejaVu Sans'" font-size="2.707px"><tspan x="42.818352" y="7.4373531" font-family="'DejaVu Sans'" font-style="oblique" stroke-width=".35278">Shape</tspan></text><text x="40.925873" y="15.56741" font-family="'DejaVu Sans'" font-size="2.707px"><tspan x="40.925873" y="15.56741"><tspan x="40.925873" y="15.56741" font-family="'DejaVu Sans'" stroke-width=".35278">+area(): int | float</tspan></tspan><tspan x="40.925873" y="18.95116">+perimeter(): int | float</tspan></text><path d="m73.492 9.7744h-33.124" fill="none" stroke="#b5161e" stroke-linecap="round" stroke-linejoin="round"/><path d="m73.492 11.725h-33.124" fill="none" stroke="#b5161e" stroke-linecap="round" stroke-linejoin="round"/></g><g transform="translate(48.484 3.286)" stroke-width=".35278"><path d="m17.817 49.56h16.572v-22.973h-33.129v22.973z" fill="#ee7105" stroke="#b5161e" stroke-linejoin="round" stroke-miterlimit="10"/><text x="3.7121501" y="30.417414" font-family="'DejaVu Sans'" font-size="2.707px"><tspan x="3.7121501" y="30.417414" font-family="'DejaVu Sans'" stroke-width=".35278">Circle</tspan></text><text x="1.8196702" y="35.970177" font-family="'DejaVu Sans'" font-size="2.707px"><tspan x="1.8196702" y="35.970177">+center: Point</tspan><tspan x="1.8196702" y="39.353928">+radius: int | float</tspan></text><path d="m34.386 32.754h-33.124" fill="none" stroke="#b5161e" stroke-linecap="round" stroke-linejoin="round"/><path d="m34.386 41.151h-33.124" fill="none" stroke="#b5161e" stroke-linecap="round" stroke-linejoin="round"/><text x="1.8196702" y="44.378914" font-family="'DejaVu Sans'" font-size="2.707px"><tspan x="1.8196702" y="44.378914"><tspan x="1.8196702" y="44.378914" font-family="'DejaVu Sans'" stroke-width=".35278">+area(): int | float</tspan></tspan><tspan x="1.8196702" y="47.762665">+perimeter(): int | float</tspan></text></g><path d="m93.474 24.598v-3.7283" fill="#fff" marker-end="url(#a)" stroke="#b5161e" stroke-linecap="round" stroke-linejoin="round" stroke-width=".35278"/><path d="m93.46 24.598h-26.976v5.275" fill="none" stroke="#b5161e" stroke-linecap="round" stroke-linejoin="round" stroke-width=".35278"/><path d="m17.546 38.356a0.17641 0.17641 0 0 0-0.17773 0.17578v8.2344a0.17639 0.17639 0 0 0 0.17773 0.17578 0.17639 0.17639 0 0 0 0.17578-0.17578v-8.0566h28.824a0.17639 0.17639 0 0 0 0.17578-0.17774 0.17639 0.17639 0 0 0-0.17578-0.17578z" color="#000000" fill="#b5161e" stroke-linecap="round" stroke-linejoin="round" style="-inkscape-stroke:none"/><g transform="translate(.1485 .2919)" fill-rule="evenodd"><path d="m46.398 39.805 2.5925-1.5636-2.5925-1.5636-2.5925 1.5636z" color="#000000" fill="#fff" stroke-width=".56946" style="-inkscape-stroke:none"/><path d="m46.398 36.346-3.1445 1.8945 3.1445 1.8965 0.14648-0.08789 2.9961-1.8086zm0 0.66406 2.041 1.2305-2.041 1.2324-2.043-1.2324z" color="#000000" fill="#b5161e" style="-inkscape-stroke:none"/></g><g transform="translate(-.4595 48.725)" stroke-width=".35278"><path d="m18.443 17.709h16.572v-19.668h-33.129v19.668z" fill="#ee7105" stroke="#b5161e" stroke-linejoin="round" stroke-miterlimit="10"/><text x="4.338233" y="1.8716426" font-family="'DejaVu Sans'" font-size="2.707px"><tspan x="4.338233" y="1.8716426" font-family="'DejaVu Sans'" stroke-width=".35278">Point</tspan></text><text x="3.1264696" y="16.103054" font-family="'DejaVu Sans'" font-size="2.707px"><tspan x="3.1264696" y="16.103054">+distance(Point): float</tspan></text><text x="2.838233" y="7.5262675" font-family="'DejaVu Sans'" font-size="2.707px"><tspan x="2.838233" y="7.5262675">+x: int | float</tspan><tspan x="2.838233" y="10.910018">+y: int | float</tspan></text><path d="m35.012 4.2087h-33.124" fill="none" stroke="#b5161e" stroke-linecap="round" stroke-linejoin="round"/><path d="m35.012 12.797h-33.124" fill="none" stroke="#b5161e" stroke-linecap="round" stroke-linejoin="round"/></g></svg>
