<?xml version="1.0" encoding="UTF-8"?>
<svg width="191pt" height="68pt" version="1.1" viewBox="0 0 191 68" xmlns="http://www.w3.org/2000/svg"><defs><marker id="d" overflow="visible" markerHeight="6.7071066" markerWidth="4.0606599" orient="auto-start-reverse" preserveAspectRatio="xMidYMid" viewBox="0 0 4.0606602 6.7071068"><path transform="rotate(180 .125 0)" d="m3-3-3 3 3 3" fill="none" stroke="context-stroke"/></marker><marker id="a" overflow="visible" markerHeight="6.7330775" markerWidth="5.8241119" orient="auto-start-reverse" preserveAspectRatio="xMidYMid" viewBox="0 0 5.8241121 6.7330776"><path transform="scale(.5)" d="m5.77 0-8.65 5v-10z" fill="context-fill" fill-rule="evenodd" stroke="context-stroke" stroke-width="2"/></marker></defs><path d="m172.45 37.462h17.268v-26.082h-34.521v26.082z" fill="#ee7105" stroke="#b5161e" stroke-linejoin="round" stroke-miterlimit="10" stroke-width=".35278"/><text x="156.62987" y="35.736732" font-family="'DejaVu Sans'" font-size="2.707px" stroke-width=".35278" style="font-variant-caps:normal;font-variant-east-asian:normal;font-variant-ligatures:normal;font-variant-numeric:normal"><tspan x="156.62987" y="35.736732">+result(): int | float</tspan></text><text x="156.62987" y="32.352982" font-family="'DejaVu Sans'" font-size="2.707px" stroke-width=".35278" style="font-variant-caps:normal;font-variant-east-asian:normal;font-variant-ligatures:normal;font-variant-numeric:normal"><tspan x="156.62987" y="32.352982">+add(int | float): None</tspan></text><path d="m154.81 14.401h-6.465v30.206h-6.4649" fill="none" marker-start="url(#d)" stroke="#b5161e" stroke-dasharray="1.41112, 1.41112" stroke-linecap="round" stroke-linejoin="round" stroke-width=".35278"/><text x="156.53807" y="63.914368" font-family="'DejaVu Sans'" font-size="4.2333px" stroke-width=".35278"><tspan x="156.53807" y="63.914368" font-family="'DejaVu Sans'" stroke-width=".35278"/></text><text x="213.42987" y="6.1751776" font-family="'DejaVu Sans'" font-size="2.4694px" stroke-width=".35278"><tspan x="213.42987" y="6.1751776" font-family="'DejaVu Sans'" font-size="2.4694px" stroke-width=".35278"/></text><path d="m94.854 19.323h16.572v-17.757h-33.129v17.757z" fill="#ee7105" stroke="#b5161e" stroke-linejoin="round" stroke-miterlimit="10" stroke-width=".35278"/><text x="80.749352" y="5.3964529" font-family="'DejaVu Sans'" font-size="2.707px" stroke-width=".35278"><tspan x="80.749352" y="5.3964529" font-family="'DejaVu Sans'" font-style="oblique" stroke-width=".35278">Shape</tspan></text><text x="78.856873" y="13.52651" font-family="'DejaVu Sans'" font-size="2.707px" stroke-width=".35278"><tspan x="78.856873" y="13.52651"><tspan x="78.856873" y="13.52651" font-family="'DejaVu Sans'" stroke-width=".35278">+area(): int | float</tspan></tspan><tspan x="78.856873" y="16.910261">+perimeter(): int | float</tspan></text><path d="m111.42 7.7335h-33.124" fill="none" stroke="#b5161e" stroke-linecap="round" stroke-linejoin="round" stroke-width=".35278"/><path d="m111.42 9.6841h-33.124" fill="none" stroke="#b5161e" stroke-linecap="round" stroke-linejoin="round" stroke-width=".35278"/><text x="157.65428" y="15.211169" font-family="'DejaVu Sans'" font-size="2.707px" stroke-width=".35278"><tspan x="157.65428" y="15.211169" font-family="'DejaVu Sans'" stroke-width=".35278">KahanSum</tspan></text><text x="156.78452" y="20.704046" font-family="'DejaVu Sans'" font-size="2.707px" stroke-width=".35278"><tspan x="156.78452" y="20.704046">-__sum: float | int</tspan><tspan x="156.78452" y="24.087797">-__cs: float | int</tspan><tspan x="156.78452" y="27.471548">-__ccs: float | int</tspan></text><path d="m189.72 17.548h-34.516" fill="none" stroke="#b5161e" stroke-linecap="round" stroke-linejoin="round" stroke-width=".35278"/><path d="m189.72 29.197h-34.516" fill="none" stroke="#b5161e" stroke-linecap="round" stroke-linejoin="round" stroke-width=".35278"/><path d="m66.154 52.846h16.572v-22.973h-33.129v22.973z" fill="#ee7105" stroke="#b5161e" stroke-linejoin="round" stroke-miterlimit="10" stroke-width=".35278"/><text x="52.049149" y="33.703415" font-family="'DejaVu Sans'" font-size="2.707px" stroke-width=".35278"><tspan x="52.049149" y="33.703415" font-family="'DejaVu Sans'" stroke-width=".35278">Circle</tspan></text><text x="50.15667" y="39.256176" font-family="'DejaVu Sans'" font-size="2.707px" stroke-width=".35278"><tspan x="50.15667" y="39.256176">+center: Point</tspan><tspan x="50.15667" y="42.639927">+radius: int | float</tspan></text><path d="m82.723 36.04h-33.124" fill="none" stroke="#b5161e" stroke-linecap="round" stroke-linejoin="round" stroke-width=".35278"/><path d="m82.723 44.437h-33.124" fill="none" stroke="#b5161e" stroke-linecap="round" stroke-linejoin="round" stroke-width=".35278"/><text x="50.15667" y="47.664913" font-family="'DejaVu Sans'" font-size="2.707px" stroke-width=".35278"><tspan x="50.15667" y="47.664913"><tspan x="50.15667" y="47.664913" font-family="'DejaVu Sans'" stroke-width=".35278">+area(): int | float</tspan></tspan><tspan x="50.15667" y="51.048664">+perimeter(): int | float</tspan></text><path d="m123.55 51.148h18.33v-21.276h-36.642v21.276z" fill="#ee7105" stroke="#b5161e" stroke-linejoin="round" stroke-miterlimit="10" stroke-width=".35278"/><text x="107.69337" y="33.70343" font-family="'DejaVu Sans'" font-size="2.707px" stroke-width=".35278"><tspan x="107.69337" y="33.70343" font-family="'DejaVu Sans'" font-style="oblique" stroke-width=".35278">Polygon</tspan></text><path d="m141.88 36.04h-36.637" fill="none" stroke="#b5161e" stroke-linecap="round" stroke-linejoin="round" stroke-width=".35278"/><path d="m141.88 38.065h-36.637" fill="none" stroke="#b5161e" stroke-linecap="round" stroke-linejoin="round" stroke-width=".35278"/><text x="106.66896" y="41.969852" font-family="'DejaVu Sans'" font-size="2.707px" stroke-width=".35278"><tspan x="106.66896" y="41.969852"><tspan x="106.66896" y="41.969852" font-family="'DejaVu Sans'" stroke-width=".35278">+points(): Iterable[Point]</tspan></tspan><tspan x="106.66896" y="45.353603">+perimeter(): int | float</tspan><tspan x="106.66896" y="48.737354">+print()</tspan></text><path d="m93.326 24.598v-3.7283" fill="#fff" marker-end="url(#a)" stroke="#b5161e" stroke-linecap="round" stroke-linejoin="round" stroke-width=".35278"/><path d="m123.38 29.873v-5.275h-57.049v5.275" fill="none" stroke="#b5161e" stroke-linecap="round" stroke-linejoin="round" stroke-width=".35278"/><path d="m17.399 38.356a0.17641 0.17641 0 0 0-0.17773 0.17578v8.2344a0.17639 0.17639 0 0 0 0.17773 0.17578 0.17639 0.17639 0 0 0 0.17578-0.17578v-8.0566h28.824a0.17639 0.17639 0 0 0 0.17578-0.17774 0.17639 0.17639 0 0 0-0.17578-0.17578z" color="#000000" fill="#b5161e" stroke-linecap="round" stroke-linejoin="round" style="-inkscape-stroke:none"/><path d="m46.399 40.097 2.5925-1.5636-2.5925-1.5636-2.5925 1.5636z" color="#000000" fill="#fff" fill-rule="evenodd" stroke-width=".56946" style="-inkscape-stroke:none"/><path d="m46.399 36.638-3.1445 1.8945 3.1445 1.8965 0.14648-0.08789 2.9961-1.8086zm0 0.66406 2.041 1.2305-2.041 1.2324-2.043-1.2324z" color="#000000" fill="#b5161e" fill-rule="evenodd" style="-inkscape-stroke:none"/><path d="m17.836 66.434h16.572v-19.668h-33.129v19.668z" fill="#ee7105" stroke="#b5161e" stroke-linejoin="round" stroke-miterlimit="10" stroke-width=".35278"/><text x="3.7312329" y="50.596542" font-family="'DejaVu Sans'" font-size="2.707px" stroke-width=".35278"><tspan x="3.7312329" y="50.596542" font-family="'DejaVu Sans'" stroke-width=".35278">Point</tspan></text><text x="2.5194695" y="64.827957" font-family="'DejaVu Sans'" font-size="2.707px" stroke-width=".35278"><tspan x="2.5194695" y="64.827957">+distance(Point): float</tspan></text><text x="2.2312329" y="56.251167" font-family="'DejaVu Sans'" font-size="2.707px" stroke-width=".35278"><tspan x="2.2312329" y="56.251167">+x: int | float</tspan><tspan x="2.2312329" y="59.634918">+y: int | float</tspan></text><path d="m34.405 52.934h-33.124" fill="none" stroke="#b5161e" stroke-linecap="round" stroke-linejoin="round" stroke-width=".35278"/><path d="m34.405 61.522h-33.124" fill="none" stroke="#b5161e" stroke-linecap="round" stroke-linejoin="round" stroke-width=".35278"/></svg>
