<?xml version="1.0" encoding="UTF-8"?>
<svg width="191pt" height="92pt" version="1.1" viewBox="0 0 191 92" xmlns="http://www.w3.org/2000/svg"><defs><marker id="h" overflow="visible" markerHeight="6.7330775" markerWidth="5.8241119" orient="auto-start-reverse" preserveAspectRatio="xMidYMid" viewBox="0 0 5.8241121 6.7330776"><path transform="scale(.5)" d="m5.77 0-8.65 5v-10z" fill="context-fill" fill-rule="evenodd" stroke="context-stroke" stroke-width="2"/></marker><marker id="d" overflow="visible" markerHeight="6.7071066" markerWidth="4.0606599" orient="auto-start-reverse" preserveAspectRatio="xMidYMid" viewBox="0 0 4.0606602 6.7071068"><path transform="rotate(180 .125 0)" d="m3-3-3 3 3 3" fill="none" stroke="context-stroke"/></marker><marker id="a" overflow="visible" markerHeight="6.7330775" markerWidth="5.8241119" orient="auto-start-reverse" preserveAspectRatio="xMidYMid" viewBox="0 0 5.8241121 6.7330776"><path transform="scale(.5)" d="m5.77 0-8.65 5v-10z" fill="context-fill" fill-rule="evenodd" stroke="context-stroke" stroke-width="2"/></marker></defs><path d="m154.81 14.109h-6.465v30.206h-6.4649" fill="none" marker-start="url(#d)" stroke="#b5161e" stroke-dasharray="1.41112, 1.41112" stroke-linecap="round" stroke-linejoin="round" stroke-width=".35278"/><text x="156.53706" y="63.622467" font-family="'DejaVu Sans'" font-size="4.2333px" stroke-width=".35278"><tspan x="156.53706" y="63.622467" font-family="'DejaVu Sans'" stroke-width=".35278"/></text><text x="213.42886" y="5.8832774" font-family="'DejaVu Sans'" font-size="2.4694px" stroke-width=".35278"><tspan x="213.42886" y="5.8832774" font-family="'DejaVu Sans'" font-size="2.4694px" stroke-width=".35278"/></text><g transform="translate(37.93,-2.3328)" stroke-width=".35278"><path d="m56.923 21.364h16.572v-17.757h-33.129v17.757z" fill="#ee7105" stroke="#b5161e" stroke-linejoin="round" stroke-miterlimit="10"/><text x="42.818352" y="7.4373531" font-family="'DejaVu Sans'" font-size="2.707px"><tspan x="42.818352" y="7.4373531" font-family="'DejaVu Sans'" font-style="oblique" stroke-width=".35278">Shape</tspan></text><text x="40.925873" y="15.56741" font-family="'DejaVu Sans'" font-size="2.707px"><tspan x="40.925873" y="15.56741"><tspan x="40.925873" y="15.56741" font-family="'DejaVu Sans'" stroke-width=".35278">+area(): int | float</tspan></tspan><tspan x="40.925873" y="18.95116">+perimeter(): int | float</tspan></text><path d="m73.492 9.7744h-33.124" fill="none" stroke="#b5161e" stroke-linecap="round" stroke-linejoin="round"/><path d="m73.492 11.725h-33.124" fill="none" stroke="#b5161e" stroke-linecap="round" stroke-linejoin="round"/></g><g transform="translate(103.01 2.1374)" stroke-width=".35278"><path d="m49.55 85.351h18.33v-26.082h-36.642v26.082z" fill="#ee7105" stroke="#b5161e" stroke-linejoin="round" stroke-miterlimit="10"/><text x="33.68959" y="63.099819" font-family="'DejaVu Sans'" font-size="2.707px"><tspan x="33.68959" y="63.099819" font-family="'DejaVu Sans'" stroke-width=".35278">Rectangle</tspan></text><text x="32.665176" y="68.621445" font-family="'DejaVu Sans'" font-size="2.707px"><tspan x="32.665176" y="68.621445">+p1: Point</tspan><tspan x="32.665176" y="72.005196">+p2: Point</tspan></text><path d="m67.877 65.437h-36.637" fill="none" stroke="#b5161e" stroke-linecap="round" stroke-linejoin="round"/><path d="m67.877 73.696h-36.637" fill="none" stroke="#b5161e" stroke-linecap="round" stroke-linejoin="round"/><text x="32.665176" y="76.89257" font-family="'DejaVu Sans'" font-size="2.707px"><tspan x="32.665176" y="76.89257"><tspan x="32.665176" y="76.89257" font-family="'DejaVu Sans'" stroke-width=".35278">+area(): int | float</tspan></tspan><tspan x="32.665176" y="80.276321">+perimeter(): int | float</tspan><tspan x="32.665176" y="83.660072">+points(): Iterable[Point]</tspan></text></g><path d="m172.45 37.17h17.268v-26.082h-34.521v26.082z" fill="#ee7105" stroke="#b5161e" stroke-linejoin="round" stroke-miterlimit="10" stroke-width=".35278"/><text x="157.65327" y="14.919269" font-family="'DejaVu Sans'" font-size="2.707px" stroke-width=".35278"><tspan x="157.65327" y="14.919269" font-family="'DejaVu Sans'" stroke-width=".35278">KahanSum</tspan></text><text x="156.78351" y="20.412148" font-family="'DejaVu Sans'" font-size="2.707px" stroke-width=".35278"><tspan x="156.78351" y="20.412148">-__sum: float | int</tspan><tspan x="156.78351" y="23.795898">-__cs: float | int</tspan><tspan x="156.78351" y="27.179649">-__ccs: float | int</tspan></text><path d="m189.72 17.256h-34.516" fill="none" stroke="#b5161e" stroke-linecap="round" stroke-linejoin="round" stroke-width=".35278"/><path d="m189.72 28.905h-34.516" fill="none" stroke="#b5161e" stroke-linecap="round" stroke-linejoin="round" stroke-width=".35278"/><g transform="translate(48.336,2.9941)" stroke-width=".35278"><path d="m17.817 49.56h16.572v-22.973h-33.129v22.973z" fill="#ee7105" stroke="#b5161e" stroke-linejoin="round" stroke-miterlimit="10"/><text x="3.7121501" y="30.417414" font-family="'DejaVu Sans'" font-size="2.707px"><tspan x="3.7121501" y="30.417414" font-family="'DejaVu Sans'" stroke-width=".35278">Circle</tspan></text><text x="1.8196702" y="35.970177" font-family="'DejaVu Sans'" font-size="2.707px"><tspan x="1.8196702" y="35.970177">+center: Point</tspan><tspan x="1.8196702" y="39.353928">+radius: int | float</tspan></text><path d="m34.386 32.754h-33.124" fill="none" stroke="#b5161e" stroke-linecap="round" stroke-linejoin="round"/><path d="m34.386 41.151h-33.124" fill="none" stroke="#b5161e" stroke-linecap="round" stroke-linejoin="round"/><text x="1.8196702" y="44.378914" font-family="'DejaVu Sans'" font-size="2.707px"><tspan x="1.8196702" y="44.378914"><tspan x="1.8196702" y="44.378914" font-family="'DejaVu Sans'" stroke-width=".35278">+area(): int | float</tspan></tspan><tspan x="1.8196702" y="47.762665">+perimeter(): int | float</tspan></text></g><g transform="translate(50.045,-1.3807)" stroke-width=".35278"><path d="m73.508 52.237h18.33v-21.276h-36.642v21.276z" fill="#ee7105" stroke="#b5161e" stroke-linejoin="round" stroke-miterlimit="10"/><text x="57.647373" y="34.792229" font-family="'DejaVu Sans'" font-size="2.707px"><tspan x="57.647373" y="34.792229" font-family="'DejaVu Sans'" font-style="oblique" stroke-width=".35278">Polygon</tspan></text><path d="m91.835 37.129h-36.637" fill="none" stroke="#b5161e" stroke-linecap="round" stroke-linejoin="round"/><path d="m91.835 39.154h-36.637" fill="none" stroke="#b5161e" stroke-linecap="round" stroke-linejoin="round"/><text x="56.622959" y="43.058651" font-family="'DejaVu Sans'" font-size="2.707px"><tspan x="56.622959" y="43.058651"><tspan x="56.622959" y="43.058651" font-family="'DejaVu Sans'" stroke-width=".35278">+points(): Iterable[Point]</tspan></tspan><tspan x="56.622959" y="46.442402">+perimeter(): int | float</tspan><tspan x="56.622959" y="49.826153">+print()</tspan></text></g><path d="m123.56 56.131v-3.7283" fill="#fff" marker-end="url(#h)" stroke="#b5161e" stroke-linecap="round" stroke-linejoin="round" stroke-width=".35278"/><path d="m152.39 61.406v-5.275h-57.66v5.275" fill="none" stroke="#b5161e" stroke-linecap="round" stroke-linejoin="round" stroke-width=".35278"/><path d="m93.325 24.306v-3.7283" fill="#fff" marker-end="url(#a)" stroke="#b5161e" stroke-linecap="round" stroke-linejoin="round" stroke-width=".35278"/><path d="m123.38 29.581v-5.275h-57.049v5.275" fill="none" stroke="#b5161e" stroke-linecap="round" stroke-linejoin="round" stroke-width=".35278"/><path d="m9.3105 65.967a0.17639 0.17639 0 0 0-0.17773 0.17578v8.3047a0.17641 0.17641 0 0 0 0.17773 0.17773h55.461l0.09961 16.102a0.17641 0.17641 0 0 0 0.17578 0.17578l58.516-0.11328a0.17641 0.17641 0 0 0 0.17578-0.17578v-20.473h7.2246a0.17639 0.17639 0 0 0 0.17578-0.17578 0.17639 0.17639 0 0 0-0.17578-0.17578h-7.4004a0.17641 0.17641 0 0 0-0.17773 0.17578v20.473l-58.162 0.11133-0.099609-16.102a0.17641 0.17641 0 0 0-0.17774-0.17578h-55.459v-8.1289a0.17639 0.17639 0 0 0-0.17578-0.17578z" color="#000000" fill="#b5161e" stroke-linecap="round" stroke-linejoin="round" style="-inkscape-stroke:none"/><g fill-rule="evenodd"><path d="m130.96 71.529 2.5925-1.5636-2.5925-1.5636-2.5925 1.5636z" color="#000000" fill="#fff" stroke-width=".56946" style="-inkscape-stroke:none"/><path d="m130.96 68.068-3.1445 1.8965 3.1445 1.8965 0.14648-0.08789 2.9961-1.8086zm0 0.66602 2.041 1.2305-2.043 1.2305-2.041-1.2305z" color="#000000" fill="#b5161e" style="-inkscape-stroke:none"/></g><path d="m17.398 38.064a0.17641 0.17641 0 0 0-0.17773 0.17578v8.2344a0.17639 0.17639 0 0 0 0.17773 0.17578 0.17639 0.17639 0 0 0 0.17578-0.17578v-8.0566h28.824a0.17639 0.17639 0 0 0 0.17578-0.17774 0.17639 0.17639 0 0 0-0.17578-0.17578z" color="#000000" fill="#b5161e" stroke-linecap="round" stroke-linejoin="round" style="-inkscape-stroke:none"/><g fill-rule="evenodd"><path d="m46.398 39.805 2.5925-1.5636-2.5925-1.5636-2.5925 1.5636z" color="#000000" fill="#fff" stroke-width=".56946" style="-inkscape-stroke:none"/><path d="m46.398 36.346-3.1445 1.8945 3.1445 1.8965 0.14648-0.08789 2.9961-1.8086zm0 0.66406 2.041 1.2305-2.041 1.2324-2.043-1.2324z" color="#000000" fill="#b5161e" style="-inkscape-stroke:none"/></g><path d="m26.373 65.965a0.17639 0.17639 0 0 0-0.17578 0.17773v3.8223a0.17641 0.17641 0 0 0 0.17578 0.17578h46.576a0.17639 0.17639 0 0 0 0.17578-0.17578 0.17639 0.17639 0 0 0-0.17578-0.17578h-46.398v-3.6465a0.17639 0.17639 0 0 0-0.17773-0.17773z" color="#000000" fill="#b5161e" stroke-linecap="round" stroke-linejoin="round" style="-inkscape-stroke:none"/><g fill-rule="evenodd"><path d="m72.949 71.529 2.5925-1.5636-2.5925-1.5636-2.5925 1.5636z" color="#000000" fill="#fff" stroke-width=".56946" style="-inkscape-stroke:none"/><path d="m72.949 68.068-3.1445 1.8965 3.1445 1.8965 0.14648-0.08789 2.998-1.8086zm0 0.66602 2.041 1.2305-2.041 1.2324-2.041-1.2324z" color="#000000" fill="#b5161e" style="-inkscape-stroke:none"/></g><g transform="translate(92.559 6.0907)" stroke-width=".35278"><path d="m1.9876 81.398h18.33v-26.082h-36.642v26.082z" fill="#ee7105" stroke="#b5161e" stroke-linejoin="round" stroke-miterlimit="10"/><text x="-13.873198" y="59.146591" font-family="'DejaVu Sans'" font-size="2.707px"><tspan x="-13.873198" y="59.146591" font-family="'DejaVu Sans'" stroke-width=".35278">Triangle</tspan></text><text x="-14.897612" y="64.668221" font-family="'DejaVu Sans'" font-size="2.707px"><tspan x="-14.897612" y="64.668221">+p1: Point</tspan><tspan x="-14.897612" y="68.051971">+p2: Point</tspan><tspan x="-14.897612" y="71.435722">+p3: Point</tspan></text><path d="m20.315 61.484h-36.637" fill="none" stroke="#b5161e" stroke-linecap="round" stroke-linejoin="round"/><path d="m20.315 73.127h-36.637" fill="none" stroke="#b5161e" stroke-linecap="round" stroke-linejoin="round"/><text x="-14.897612" y="76.323097" font-family="'DejaVu Sans'" font-size="2.707px"><tspan x="-14.897612" y="76.323097"><tspan x="-14.897612" y="76.323097" font-family="'DejaVu Sans'" stroke-width=".35278">+area(): int | float</tspan></tspan><tspan x="-14.897612" y="79.706848">+points(): Iterable[Point]</tspan></text></g><g transform="translate(-.608 48.433)" stroke-width=".35278"><path d="m18.443 17.709h16.572v-19.668h-33.129v19.668z" fill="#ee7105" stroke="#b5161e" stroke-linejoin="round" stroke-miterlimit="10"/><text x="4.338233" y="1.8716426" font-family="'DejaVu Sans'" font-size="2.707px"><tspan x="4.338233" y="1.8716426" font-family="'DejaVu Sans'" stroke-width=".35278">Point</tspan></text><text x="3.1264696" y="16.103054" font-family="'DejaVu Sans'" font-size="2.707px"><tspan x="3.1264696" y="16.103054">+distance(Point): float</tspan></text><text x="2.838233" y="7.5262675" font-family="'DejaVu Sans'" font-size="2.707px"><tspan x="2.838233" y="7.5262675">+x: int | float</tspan><tspan x="2.838233" y="10.910018">+y: int | float</tspan></text><path d="m35.012 4.2087h-33.124" fill="none" stroke="#b5161e" stroke-linecap="round" stroke-linejoin="round"/><path d="m35.012 12.797h-33.124" fill="none" stroke="#b5161e" stroke-linecap="round" stroke-linejoin="round"/></g><g font-family="'DejaVu Sans'" font-size="2.707px" stroke-width=".35278"><text x="156.62886" y="35.444832" style="font-variant-caps:normal;font-variant-east-asian:normal;font-variant-ligatures:normal;font-variant-numeric:normal"><tspan x="156.62886" y="35.444832">+result(): int | float</tspan></text><text x="156.62886" y="32.061081" style="font-variant-caps:normal;font-variant-east-asian:normal;font-variant-ligatures:normal;font-variant-numeric:normal"><tspan x="156.62886" y="32.061081">+add(int | float): None</tspan></text></g></svg>
